<svg width="55" height="55" fill="none" xmlns="http://www.w3.org/2000/svg"><circle cx="27.5" cy="27.5" r="27.5" fill="#9630D8"/><g clip-path="url(#a)" fill="#fff"><path d="M36.043 40.24c-.585 2.535-3.468 4.312-6.277 3.172-.952-.387-1.855-.922-2.729-1.473-1.824-1.15-3.801-1.547-5.933-1.474-1.067.036-2.162-.022-3.206-.23-2.434-.484-3.64-3.086-3.233-5.214.401-2.09 1.637-3.593 3.377-4.666 1.363-.84 2.783-1.576 4.002-2.643a42.692 42.692 0 0 1 2.473-1.998c.892-.67 1.876-1.192 3.014-1.145 2.091.088 3.679 1.058 4.525 3.02.528 1.226.845 2.544 1.348 3.782.402.989.897 1.948 1.435 2.87.914 1.566 1.506 3.204 1.366 5.056-.025.317-.107.63-.162.944ZM33.513 25.175c-1.334-.427-2.27-1.664-2.307-3.259-.065-2.766 1.1-4.894 3.483-6.277 1.044-.605 2.177-.72 3.285-.128.956.51 1.454 1.376 1.616 2.415.352 2.26-.426 4.164-1.974 5.777-.853.889-1.88 1.466-3.126 1.537-.324.018-.652-.041-.977-.065ZM29.22 18.577c-.406 1.524-.88 2.45-1.686 3.173-1.634 1.463-3.73 1.162-4.89-.693-1.369-2.19-1.132-5.42.542-7.4.965-1.141 2.294-1.593 3.529-1.145 1.053.382 1.704 1.203 2.13 2.213.595 1.407.632 2.86.375 3.852ZM44.205 29.031c-.624 2.138-2.5 3.827-4.577 4.094-2.04.262-3.621-1.294-3.428-3.375.236-2.554 2.275-4.719 4.752-5.046 1.966-.26 3.578 1.304 3.396 3.302-.031.344-.095.684-.143 1.025ZM13.795 21.176c.293-1.056.696-1.84 1.412-2.422 1.131-.92 2.652-.85 3.79.156 1.793 1.582 2.236 4.743.973 6.802-1.215 1.978-3.557 2.234-5.128.26-1.164-1.462-1.4-3.158-1.047-4.796Z"/></g><defs><clipPath id="a"><path fill="#fff" transform="rotate(15 -28.632 68.892)" d="M0 0h31.407v29.203H0z"/></clipPath></defs></svg>