<svg width="32" height="28" fill="none" xmlns="http://www.w3.org/2000/svg"><path d="M6 4.5H3a2 2 0 0 0-2 2V25a2 2 0 0 0 2 2h25.5a2 2 0 0 0 2-2V6.5a2 2 0 0 0-2-2H25" stroke="#333" stroke-width="2"/><path d="M8 1v7M23 1v7" stroke="#333" stroke-width="2" stroke-linecap="round"/><path d="M11 5h9" stroke="#333" stroke-width="2"/><circle cx="8.5" cy="13.5" r="1.5" fill="#333"/><circle cx="8.5" cy="18.5" r="1.5" fill="#333"/><circle cx="13.5" cy="13.5" r="1.5" fill="#333"/><circle cx="13.5" cy="18.5" r="1.5" fill="#333"/><circle cx="18.5" cy="13.5" r="1.5" fill="#333"/><circle cx="18.5" cy="18.5" r="1.5" fill="#333"/><circle cx="23.5" cy="13.5" r="1.5" fill="#333"/><circle cx="23.5" cy="18.5" r="1.5" fill="#333"/></svg>