<svg width="32" height="29" fill="none" xmlns="http://www.w3.org/2000/svg"><g clip-path="url(#a)" stroke="#333" stroke-width="2"><path d="M13.203 27.294c-.995.3-1.956.56-2.906.676-2.44.296-4.275-1.64-4.221-3.601.014-.16.021-.28.027-.384.01-.166.017-.284.046-.436.297-1.535 1.159-2.779 2.39-3.968.796-.77 1.57-1.598 2.264-2.49.408-.525.776-1.076 1.121-1.593l.075-.112c.374-.56.726-1.08 1.115-1.559 1.085-1.338 2.503-1.77 4.26-1.387l-4.17 14.854Zm0 0c2.325-.703 4.58-.55 6.802.11l-6.802-.11Zm13.293-2.573c-.128 1.721-1.634 3.366-3.496 3.248-.99-.064-2.006-.272-2.995-.565l6.49-2.683Zm0 0c.131-1.765-.539-3.256-1.814-4.573-.236-.243-.485-.491-.74-.746-.884-.88-1.846-1.839-2.608-2.948m5.162 8.267-5.162-8.267m0 0c-.584-.85-1.21-1.68-1.862-2.492m1.862 2.492-1.863-2.492m0 0c-.646-.806-1.297-1.348-2.096-1.522l2.096 1.522ZM13.712 7.686c-.328 1.09-1.171 1.731-2.117 1.815a19.48 19.48 0 0 0-.246-.038l-.14-.022a2.393 2.393 0 0 1-.34-.075h-.001c-.922-.297-1.6-.918-2.107-1.817-.972-1.721-1.166-3.41-.38-5.144.33-.727.824-1.178 1.538-1.34l3.793 6.62Zm0 0c.688-2.284.198-4.238-1.514-5.913m1.514 5.913-1.514-5.913m0 0c-.663-.649-1.411-.904-2.28-.708l2.28.708ZM21.653 1.104c.845-.071 1.683.4 2.187 1.443l-2.187-1.443Zm0 0c-.776.065-1.405.479-1.982 1.202m1.982-1.202L19.67 2.307m0 0c-.82 1.027-1.158 2.193-1.165 2.98m1.165-2.98-1.165 2.98m0 0c-.002 1.465.207 2.247.654 2.914.468.7 1.062 1.032 1.63 1.1.57.066 1.233-.12 1.861-.691l-4.145-3.324Zm4.146 3.323c1.599-1.454 2.12-4.134 1.19-6.063L22.65 8.61ZM3.797 15.632c1.355.543 2.66-.187 2.907-1.6.36-2.049-.825-4.19-2.736-4.961-1.292-.523-2.62.22-2.854 1.54-.035.198-.054.377-.077.586l-.035.307c.07 1.812 1.236 3.505 2.795 4.128ZM27.914 9.127c.995-.482 1.975-.23 2.532.52l-2.532-.52Zm0 0c-.84.407-1.551 1.202-1.976 2.173m1.976-2.173L25.938 11.3m3.183 3.958c-.815.588-1.56.651-2.11.467-.555-.185-1.072-.675-1.328-1.514l3.438 1.047Zm0 0c1.24-.892 1.802-2.146 1.879-3.54m-1.879 3.54L31 11.718m0 0c-.011-.958-.18-1.567-.553-2.07l.553 2.07Zm-5.062-.418c-.425.972-.523 2.03-.255 2.91l.255-2.91Z"/></g><defs><clipPath id="a"><path fill="#fff" transform="matrix(-1 0 0 1 32 0)" d="M0 0h32v29H0z"/></clipPath></defs></svg>