<svg width="23" height="23" fill="none" xmlns="http://www.w3.org/2000/svg"><path d="M11.5 2.072c3.07 0 3.434.012 4.647.067 1.121.051 1.73.239 2.135.396.537.209.92.458 1.323.86.402.403.651.786.86 1.323.157.405.345 1.014.396 2.135.055 1.213.067 1.576.067 4.647 0 3.07-.012 3.434-.067 4.647-.051 1.121-.239 1.73-.396 2.135-.209.537-.458.92-.86 1.323a3.563 3.563 0 0 1-1.323.86c-.405.157-1.014.345-2.135.396-1.212.055-1.576.067-4.647.067-3.07 0-3.435-.012-4.647-.067-1.121-.051-1.73-.239-2.135-.396a3.563 3.563 0 0 1-1.323-.86 3.562 3.562 0 0 1-.86-1.323c-.157-.405-.345-1.014-.396-2.135-.055-1.213-.067-1.576-.067-4.647 0-3.07.012-3.434.067-4.647.051-1.121.239-1.73.396-2.135.209-.537.458-.92.86-1.323a3.563 3.563 0 0 1 1.323-.86c.405-.157 1.014-.345 2.135-.396 1.213-.055 1.576-.067 4.647-.067ZM11.5 0C8.377 0 7.985.013 6.759.07c-1.225.055-2.06.25-2.792.534A5.637 5.637 0 0 0 1.93 1.93 5.637 5.637 0 0 0 .604 3.967C.319 4.7.125 5.535.069 6.76.013 7.985 0 8.377 0 11.5c0 3.123.013 3.515.07 4.741.055 1.224.25 2.06.534 2.792A5.638 5.638 0 0 0 1.93 21.07c.64.64 1.28 1.032 2.037 1.326.732.285 1.567.479 2.792.535 1.226.056 1.618.069 4.741.069 3.123 0 3.515-.013 4.741-.07 1.224-.055 2.06-.25 2.792-.534a5.637 5.637 0 0 0 2.037-1.326 5.637 5.637 0 0 0 1.326-2.037c.284-.732.479-1.568.535-2.792.056-1.226.069-1.618.069-4.741 0-3.123-.013-3.515-.07-4.741-.055-1.224-.25-2.06-.534-2.792A5.636 5.636 0 0 0 21.07 1.93 5.636 5.636 0 0 0 19.033.604C18.3.319 17.465.125 16.24.069 15.015.013 14.623 0 11.5 0Zm0 5.595a5.905 5.905 0 1 0 0 11.81 5.905 5.905 0 0 0 0-11.81Zm0 9.738a3.833 3.833 0 1 1 0-7.666 3.833 3.833 0 0 1 0 7.666Zm7.519-9.972a1.38 1.38 0 1 1-2.76 0 1.38 1.38 0 0 1 2.76 0Z" fill="#9630D8"/></svg>