<svg width="1440" height="923" fill="none" xmlns="http://www.w3.org/2000/svg"><path opacity=".3" d="M1953.5 334.5c-29.17 28.333-129.9 92.4-299.5 122-212 37-355.5-37-454-138s-239.798-99.355-358.501-47c-131.5 58-171.292 225.845-96.999 330.501C802 683 931.053 638.559 889.499 594.5 799.43 499 803 717.501 771 773.001s-123.5 97.591-219 60.591c-95.5-37-201 101.999-259 86.499-51.285-13.705-23-96.591 11.5-81.091S284 947 223 896.5s63.233-219.775 19-267.5c-19-20.499-39.5-2.499-113.5-95.499S121 311.5 166.5 357c26.618 26.618-40.827 118.651-133.5 113-410-25.001-455-563.5 207.5-453.5 7 20.5 14.2-8.4 21 0 8.5 10.5 8.5 25.5 20 16s16-12 18.5-6c20 6 23-15 36 0s40 22 48.5 11" stroke="#9630D8" stroke-width="3" stroke-linecap="round"/></svg>