<svg width="200" height="93" fill="none" xmlns="http://www.w3.org/2000/svg"><path d="M138.507 18.669c.048-.507.032-.893-.057-1.167-.088-.273-.265-.386-.539-.346-.152.016-.297.153-.434.395a6.496 6.496 0 0 0-.41.9 10.11 10.11 0 0 0-.362 1.183c-.105.426-.201.836-.29 1.222-.088.386-.161.74-.217 1.062-.056.322-.096.539-.113.652-.04.152-.072.394-.088.724-.016.33-.016.691.016 1.093.032.395.089.805.177 1.223.089.418.233.78.45 1.094.33-.99.596-1.85.797-2.574.201-.724.322-1.158.362-1.295.177-.853.321-1.633.45-2.34.121-.716.201-1.328.258-1.826ZM145.713 27.62c.572-.273 1.119-.683 1.641-1.238.523-.555.949-1.327 1.279-2.308.25-.797.386-1.424.394-1.89.008-.467-.04-.82-.144-1.062-.105-.241-.25-.394-.435-.45-.185-.057-.346-.081-.482-.057-.62.097-1.199.378-1.746.845a7.499 7.499 0 0 0-1.464 1.761 12.548 12.548 0 0 0-1.118 2.357c-.313.86-.539 1.737-.691 2.63.273 0 .659-.032 1.158-.088a5.32 5.32 0 0 0 1.608-.5ZM157.698 27.62c.571-.273 1.118-.683 1.641-1.238.523-.555.949-1.327 1.279-2.308.249-.797.386-1.424.394-1.89.008-.467-.04-.82-.145-1.062-.104-.241-.249-.394-.434-.45-.185-.057-.346-.081-.482-.057-.62.097-1.199.378-1.746.845a7.499 7.499 0 0 0-1.464 1.761 12.548 12.548 0 0 0-1.118 2.357c-.306.86-.539 1.737-.7 2.63.274 0 .66-.032 1.159-.088a5.296 5.296 0 0 0 1.616-.5Z" fill="#9630D8"/><path d="M198.977 20.165c-.128-.338-.217-.7-.522-.925-.282-.21-.66-.242-1.006-.217-.812.064-1.713.064-2.437.474-.66.37-1.174.941-1.633 1.536-.587.756-1.11 1.577-1.842 2.196a33.75 33.75 0 0 1 .965-4.36c.161-.562.346-1.141.306-1.729-.04-.563-.29-1.093-.571-1.584-.7-1.207-1.931-1.062-3.161-.91-1.199.146-2.413.524-3.282 1.392-.547.547-.877 1.263-1.214 2.663-.177.732-.37 1.633-.588 2.694-.281.507-.587 1.102-.941 1.786a81.995 81.995 0 0 1-1.343 2.542 95.99 95.99 0 0 1-1.544 2.702c-.177.306-.362.604-.547.885a64.679 64.679 0 0 1 .973-3.459c.273-.868.531-1.648.764-2.34l.603-1.73c.274-.764.403-1.15.403-1.656 0-1.127-.652-2.124-1.738-2.655a5.427 5.427 0 0 0-1.279-.442 6.293 6.293 0 0 0-1.48-.137 4.12 4.12 0 0 0-1.745.442c-.933.467-1.351 1.344-1.681 2.011-.266.555-.571 1.271-.901 2.156a44.72 44.72 0 0 0-.949 2.807c-.217.402-.41.772-.644 1.19a77.824 77.824 0 0 1-1.56 2.679c.064-.298.137-.603.209-.917.265-1.126.563-2.3.901-3.507.346-1.23.7-2.453 1.062-3.668l1.077-3.539c.169-.555.33-1.094.491-1.592l.241-.049.25-.048c1.279 1.424 3.676 1.239 5.188-.056.78-.668 1.295-1.545 1.504-2.663.33-2.332-.998-3.346-1.601-3.676-.692-.378-1.504-.555-2.437-.506-.233.016-.643.064-1.231.153-.128-.958-.748-1.794-1.705-2.269a5.387 5.387 0 0 0-1.287-.442 6.224 6.224 0 0 0-1.472-.137c-.651.024-1.246.17-1.753.435-1.022.506-1.44 1.512-1.842 2.485-.185.45-.394.99-.636 1.625-.402.08-.804.169-1.198.257-.821.185-1.552.338-2.196.475l-.539.112c-.491-.297-1.198-.522-2.172-.378a3.49 3.49 0 0 0-2.461 1.609 3.93 3.93 0 0 0-.635 2.14c0 .353.056.715.185 1.134a3.23 3.23 0 0 0 1.158 1.608c.145.105.346.145.507.234H159.918a7.868 7.868 0 0 0-3.901 1.222c-.587.362-1.134.805-1.657 1.287-.394.201-.74.45-.989.78a4.735 4.735 0 0 0-.821-1.472c-.49-.603-1.142-1.07-1.954-1.407-.748-.306-1.601-.443-2.63-.41h-.032a7.868 7.868 0 0 0-3.902 1.222c-.53.33-1.037.716-1.52 1.142-.04.024-.088.04-.128.073a9.8 9.8 0 0 0-.185-2.1c-.274-1.278-.765-2.236-1.521-2.927-1.077-.982-2.171-1.143-2.887-1.102-.982.04-1.915.41-2.727 1.061-.45.37-.861.797-1.231 1.28a6.123 6.123 0 0 0-.539-.194 5.03 5.03 0 0 0-1.697-.225c-.209.008-.41.032-.611.08v-.144l-.064.16c-.982.242-1.786.926-2.188 1.931-.225.611-.451 1.247-.692 1.898-.193-.41-.523-.836-1.062-1.23a5.896 5.896 0 0 0-1.23-.652 5.631 5.631 0 0 0-1.4-.338c-.981-.12-1.906.145-2.598.74l-.04.032c-.483.435-.861 1.022-1.271 1.963-.274.627-.539 1.408-.804 2.325a52.85 52.85 0 0 0-.724 2.807c-.049.209-.073.426-.121.643-.161-.257-.29-.547-.483-.78a10.898 10.898 0 0 0-1.793-1.754c.37-.176.667-.394.885-.61a15.896 15.896 0 0 0 1.978-2.237 24.224 24.224 0 0 0 1.625-2.525c.491-.885.925-1.802 1.295-2.735.378-.966.676-1.93.885-2.888.434-2.027.555-3.724.37-5.188-.201-1.6-.7-2.944-1.488-3.998a6.373 6.373 0 0 0-3.33-2.34c-1.142-.354-2.405-.459-3.748-.338-1.215.12-2.494.426-3.813.9a24.18 24.18 0 0 0-3.724 1.738 27.384 27.384 0 0 0-3.523 2.39c-1.142.9-2.18 1.881-3.097 2.919a18.396 18.396 0 0 0-2.357 3.306c-.692 1.247-1.142 2.517-1.319 3.78-.281 1.834-.145 3.5.41 4.93a10.063 10.063 0 0 0 2.293 3.54 13.74 13.74 0 0 0 3.233 2.38 37.32 37.32 0 0 0 3.33 1.601c1.046.451 2.059.893 3.033 1.336.804.362 1.504.764 2.067 1.19.386.298.651.595.796.91.048.104.064.385-.04.811-.04.137-.145.435-.491.942-.241.362-.635.732-1.174 1.118-.587.418-1.368.788-2.317 1.118-.949.321-2.131.514-3.531.563-.949.048-1.721-.049-2.316-.274-.555-.209-.982-.458-1.239-.724-.241-.249-.298-.434-.33-.635 0 0 .097-.169.547-.41.225-.121.756-.314 1.786-.33a3.41 3.41 0 0 0 2.043-.684 3.392 3.392 0 0 0 1.239-1.689c.289-.9.16-1.874-.403-2.719-.362-.514-1.061-1.158-2.413-1.335a9.097 9.097 0 0 0-3.587.306 9.41 9.41 0 0 0-3.016 1.512c-.86.66-1.6 1.432-2.188 2.292a8.165 8.165 0 0 0-1.271 2.92 6.673 6.673 0 0 0 .145 3.33c.354 1.158 1.037 2.172 2.05 3.016.91.765 2.052 1.352 3.484 1.786.112.032.257.048.37.08-.435.314-.853.66-1.239 1.03a13.114 13.114 0 0 0-1.826 2.244 21.583 21.583 0 0 0-1.198 2.092 16.028 16.028 0 0 0-.789 1.793c-.257.708-.386 1.166-.378 1.52-.088 1.569.813 2.872 2.245 3.25 1.206.33 2.46-.097 3.12-.925.354-.378.571-.804.853-1.48.137-.338.322-.748.555-1.239.217-.466.483-.957.788-1.48a7.78 7.78 0 0 1 .885-1.206c.201-.225.418-.419.66-.571.104.265.225.683.321 1.335.145.957.145 2.18 0 3.636-.144 1.496-.531 3.241-1.142 5.196-.619 1.978-1.552 4.222-2.767 6.652-1.214 2.437-2.823 5.1-4.81 7.947a4.714 4.714 0 0 0-.772 2.123c-.072.651-.04 1.279.096 1.826.194.812.58 1.48 1.15 1.987 1.119.98 2.727.973 3.886.024.716-.571 1.456-1.32 2.236-2.293a32.719 32.719 0 0 0 2.188-3.08c.466-.74.933-1.52 1.399-2.349.177.933.386 1.874.628 2.847.37 1.505.828 2.912 1.359 4.183.579 1.4 1.295 2.606 2.123 3.58 1.102 1.294 2.502 2.042 4.046 2.147.113.008.226.016.338.016a5.02 5.02 0 0 0 1.255-.16c.434-.114.82-.242 1.166-.403a3.808 3.808 0 0 0 1.464-1.126c.555-.724.692-1.609.467-2.453 1.085-.049 2.163-.435 3.177-1.159.458-.33.917-.732 1.367-1.174.024.048.032.12.056.169.789 1.713 2.301 2.719 4.127 2.759h.12c1.271 0 2.542-.587 3.773-1.738.885-.828 1.745-1.817 2.638-3.04 0 0 0-.008.008-.008.193.41.418.78.684 1.11.836 1.07 2.083 1.681 3.475 1.721 1.053.04 2.123-.305 3.137-1.03.595-.426 1.182-.965 1.777-1.6.306.523.684.99 1.134 1.383a4.93 4.93 0 0 0 2.172 1.094c-.298.314-.587.62-.861.917-1.126 1.24-2.091 2.413-2.871 3.5-.933 1.31-1.52 2.509-1.794 3.66-.354 1.48-.322 2.798.097 3.9a5.574 5.574 0 0 0 1.994 2.63 6.628 6.628 0 0 0 2.679 1.11 9.76 9.76 0 0 0 1.689.153 7.71 7.71 0 0 0 4.496-1.424c1.014-.707 1.931-1.632 2.743-2.75.764-1.046 1.448-2.26 2.035-3.612a43.93 43.93 0 0 0 1.545-4.102 62.13 62.13 0 0 0 1.262-4.52c.298-1.263.579-2.526.853-3.789.901-.86 1.786-1.697 2.638-2.517a89.568 89.568 0 0 0 2.912-2.945 41.801 41.801 0 0 0 2.324-2.678c.757-.957 1.287-1.81 1.682-2.719.547-1.262.386-4.182-1.352-4.416-.909-.12-2.163.21-2.936.692-.434.274-.796.62-1.021.965a29.51 29.51 0 0 1-2.236 2.679c.193-1.054.386-2.01.571-2.896.177-.836.362-1.52.523-1.962.418-1.15.153-2.807-.941-3.54-.869-.579-2.381-.41-3.33-.144-.411.112-.805.25-1.191.426-.603.274-1.021.539-1.351.869-.555.563-.885 1.279-1.231 2.67-.177.732-.37 1.633-.587 2.703a41.536 41.536 0 0 0-.941 1.785 84.094 84.094 0 0 1-1.343 2.542 95.909 95.909 0 0 1-1.545 2.703c-.185.306-.362.603-.547.885.073-.282.145-.58.226-.87.233-.876.482-1.736.748-2.581.273-.877.531-1.657.764-2.349l.603-1.73c.266-.74.402-1.141.402-1.656 0-1.118-.643-2.107-1.737-2.654a5.436 5.436 0 0 0-1.279-.443 5.703 5.703 0 0 0-1.464-.136 4.103 4.103 0 0 0-1.737.434c-.949.466-1.376 1.351-1.698 2.019a27.75 27.75 0 0 0-.9 2.155 46.021 46.021 0 0 0-.95 2.824c-.217.394-.41.756-.643 1.174-.41.74-.837 1.48-1.279 2.228.04-.177.089-.346.137-.53.41-1.585.86-3.21 1.359-4.891a213.963 213.963 0 0 1 1.545-4.987l.965-2.968.796-.097c.459-.056.877-.096 1.255-.136.008.016.024.024.032.04.579.724 1.432 1.118 2.51 1.118h.008a4.552 4.552 0 0 0 2.783-1.094 4.457 4.457 0 0 0 1.488-2.566c.442-2.477-1.102-3.523-1.601-3.797a4.349 4.349 0 0 0-2.011-.498c-.225 0-.442 0-1.391.112l-1.625.201a2.81 2.81 0 0 0 .129-.836c0-1.126-.652-2.115-1.73-2.654a5.436 5.436 0 0 0-1.279-.443 6.423 6.423 0 0 0-1.472-.137 4.138 4.138 0 0 0-1.922.531c-.788.483-1.142 1.167-1.753 2.606-.242.58-.523 1.28-.821 2.084l-1.729.241c.04-.193.056-.362.056-.555 0-1.11-.643-2.1-1.729-2.654a5.452 5.452 0 0 0-1.279-.443 5.859 5.859 0 0 0-1.448-.136c-.66.016-1.255.16-1.778.434-1.021.498-1.415 1.456-1.914 2.654a52.827 52.827 0 0 0-.748 1.898l-1.126.153c-.024 0-.048.008-.073.008a4.169 4.169 0 0 0-.788-1.078c1.15-1.262 2.309-2.517 3.403-3.796a3.752 3.752 0 0 0 .9-2.912 4.18 4.18 0 0 0-.836-2.075 3.549 3.549 0 0 0-2.389-1.383 3.093 3.093 0 0 0-.82.024c.04-.032.08-.049.112-.08.571-.491 1.11-1.079 1.617-1.754l.008-.008c.442.62.989 1.15 1.625 1.576.989.676 2.18.966 3.531.853 1.11-.08 2.147-.58 3.089-1.456.659-.62 1.27-1.375 1.825-2.244.097-.153.169-.33.258-.483.08.282.129.58.233.837.483 1.238 1.239 2.26 2.252 3.04 1.086.845 2.437 1.287 3.982 1.32.056 0 .12.007.177.007 1.037 0 2.083-.321 3.121-.949a13.419 13.419 0 0 0 2.437-1.954c.169-.17.33-.394.498-.58.459.829 1.022 1.585 1.77 2.164 1.086.845 2.437 1.287 3.982 1.32.056 0 .12.007.176.007 1.038 0 2.084-.321 3.121-.949a13.347 13.347 0 0 0 2.437-1.954c.354-.354.708-.732 1.054-1.134.097.257.161.547.282.78.828 1.584 2.332 2.517 4.102 2.558h.145c1.279 0 2.541-.547 3.74-1.625.338-.306.684-.66 1.021-1.03.314.531.692 1.006 1.151 1.408.611.539 1.335.9 2.163 1.094-.289.306-.579.611-.852.909-1.126 1.23-2.092 2.413-2.872 3.507-.933 1.303-1.52 2.501-1.794 3.66-.353 1.48-.321 2.799.105 3.909.418 1.094 1.086 1.97 1.987 2.614a6.671 6.671 0 0 0 2.678 1.11 9.759 9.759 0 0 0 1.689.152 7.756 7.756 0 0 0 4.497-1.416c1.005-.707 1.93-1.632 2.751-2.75.756-1.038 1.439-2.26 2.035-3.611a45.917 45.917 0 0 0 1.552-4.103 58.339 58.339 0 0 0 1.263-4.52c.297-1.263.587-2.526.852-3.789.901-.86 1.786-1.697 2.639-2.517a82.695 82.695 0 0 0 2.919-2.952 38.408 38.408 0 0 0 2.325-2.687c.748-.957 1.287-1.81 1.681-2.71.217-.563.314-1.15.257-1.746-.104-.45-.217-.94-.386-1.4ZM118.679 35.56c.21.563.459 1.078.781 1.52a4.256 4.256 0 0 0 3.33 1.754c.064 0 .128.008.193.008.273 0 .603-.049.949-.137a4.063 4.063 0 0 0-.563.692c-.386.627-.965 1.407-1.722 2.324-.812.99-1.737 2.06-2.766 3.21a130.876 130.876 0 0 1-3.395 3.603 315.034 315.034 0 0 1-3.7 3.716c-.064.064-.137.129-.201.201.217-1.432.298-2.783.249-4.038-.064-1.423-.337-2.718-.828-3.836-.475-1.094-1.207-1.955-2.083-2.663.925-.217 1.89-.498 2.879-.86a15.783 15.783 0 0 0 3.145-1.585 12.351 12.351 0 0 0 2.799-2.502c.362-.434.66-.916.933-1.407Zm-21.194 2.558c-.62-.523-1.03-1.118-1.239-1.786a4.059 4.059 0 0 1-.088-2.035 5.653 5.653 0 0 1 .868-1.995 7.144 7.144 0 0 1 1.617-1.689 7.031 7.031 0 0 1 2.18-1.094 6.46 6.46 0 0 1 2.558-.217c.289.04.482.12.571.25a.443.443 0 0 1 .056.41c-.048.144-.153.273-.305.394a.785.785 0 0 1-.491.177c-1.239.016-2.244.233-3.008.635-.764.41-1.303.901-1.617 1.472-.314.571-.394 1.19-.266 1.858.137.668.467 1.28 1.006 1.834.53.555 1.263 1.005 2.196 1.351.933.346 2.051.5 3.346.435 1.649-.057 3.064-.29 4.263-.7 1.19-.41 2.188-.893 2.976-1.456.796-.563 1.408-1.158 1.834-1.786.426-.627.708-1.206.844-1.729.25-1.005.21-1.866-.112-2.574-.33-.708-.861-1.335-1.585-1.89-.724-.555-1.584-1.054-2.574-1.496-.989-.442-2.019-.901-3.08-1.351a39.536 39.536 0 0 1-3.113-1.496 11.325 11.325 0 0 1-2.63-1.93 7.586 7.586 0 0 1-1.706-2.631c-.386-1.006-.474-2.212-.257-3.604.137-.949.475-1.914 1.022-2.895a15.675 15.675 0 0 1 2.035-2.848 22.493 22.493 0 0 1 2.758-2.606 23.832 23.832 0 0 1 3.202-2.163 21.37 21.37 0 0 1 3.33-1.553c1.118-.41 2.172-.66 3.169-.756.997-.096 1.906-.016 2.735.233.82.25 1.496.724 2.011 1.408.514.692.844 1.609.989 2.767.145 1.15.032 2.59-.33 4.32-.177.812-.426 1.64-.756 2.469-.33.836-.716 1.64-1.15 2.429a19.364 19.364 0 0 1-1.44 2.236 13.58 13.58 0 0 1-1.657 1.874c-.096.096-.249.185-.45.265-.201.08-.386.121-.539.13-.153.007-.258-.017-.322-.09-.056-.064 0-.192.177-.361.483-.483.949-1.054 1.399-1.706.443-.651.845-1.35 1.207-2.09a23.7 23.7 0 0 0 .957-2.325 16.67 16.67 0 0 0 .652-2.43c.346-1.785.394-3.185.144-4.198-.249-1.022-.707-1.738-1.367-2.164-.659-.426-1.464-.595-2.413-.507-.949.089-1.954.362-3.008.813a17.97 17.97 0 0 0-3.137 1.761 20.148 20.148 0 0 0-2.823 2.34 14.837 14.837 0 0 0-2.084 2.575c-.539.877-.82 1.689-.844 2.445-.04 1.142.177 2.115.635 2.92a7.311 7.311 0 0 0 1.85 2.107 13.907 13.907 0 0 0 2.614 1.6c.982.467 1.963.934 2.952 1.4.99.467 1.931.966 2.824 1.512a8.414 8.414 0 0 1 2.228 1.923c.587.732.989 1.617 1.19 2.63.201 1.022.105 2.236-.306 3.652-.313 1.046-.78 1.954-1.423 2.735a9.807 9.807 0 0 1-2.212 1.978c-.837.547-1.714.982-2.63 1.328-.917.337-1.81.603-2.671.796a19.88 19.88 0 0 1-2.389.394c-.724.064-1.295.105-1.705.105-1.649 0-3.016-.161-4.102-.5-1.094-.361-1.947-.787-2.566-1.31Zm16.264-20.978a10.35 10.35 0 0 1-1.086 1.336c-.555.547-.845 1.142-.933 1.72l-2.317-1.093c-.804-.386-1.52-.82-2.131-1.295a4.685 4.685 0 0 1-1.199-1.36c-.217-.377-.313-.884-.289-1.552 0-.128.056-.49.45-1.126a11.754 11.754 0 0 1 1.714-2.107 18.065 18.065 0 0 1 2.461-2.043 15.887 15.887 0 0 1 2.686-1.512c.797-.346 1.545-.547 2.212-.612.073-.008.153-.008.234-.008.193 0 .394.024.522.113.033.024.153.2.258.611.088.362.185 1.239-.177 3.08a15.666 15.666 0 0 1-.555 2.06c-.25.716-.531 1.4-.845 2.051a15.001 15.001 0 0 1-1.005 1.737Zm12.934 34.434c.828-.104 1.721-.225 2.694-.361.483-1.336.901-2.43 1.255-3.274.346-.845.571-1.287.668-1.32a1.5 1.5 0 0 1 .683-.16c.282-.008.555.016.813.072.265.056.49.137.683.233.193.097.29.201.29.322 0 .056-.121.419-.354 1.078-.233.66-.531 1.536-.901 2.614 1.223-.153 2.462-.322 3.724-.499 1.263-.177 2.502-.345 3.724-.522a69.165 69.165 0 0 1 1.312-3.435c.37-.869.603-1.335.699-1.4a1.46 1.46 0 0 1 .668-.16c.273-.008.539.016.796.072.266.056.491.137.684.233.193.097.289.201.289.322 0 .056-.12.442-.361 1.15-.242.708-.555 1.641-.942 2.807.853-.112 1.649-.225 2.397-.321.748-.097 1.408-.177 1.995-.25.579-.064 1.062-.128 1.456-.177.386-.048.635-.072.756-.072.386-.016.716.04.989.193.274.145.362.49.266 1.03-.081.41-.29.756-.627 1.045-.338.29-.732.443-1.183.467-.177 0-.297-.049-.378-.145a.642.642 0 0 1-.145-.346.846.846 0 0 1 .057-.418.81.81 0 0 1 .233-.338c-.024-.04-.193-.056-.507-.04-.322.008-.756.04-1.311.088-.555.049-1.198.113-1.946.201-.749.089-1.561.193-2.454.306-.45 1.36-.941 2.871-1.48 4.536a220.228 220.228 0 0 0-1.568 5.06 150.664 150.664 0 0 0-1.384 4.97 50.541 50.541 0 0 0-.941 4.288c-.209 1.255-.289 2.244-.233 2.984.056.74.314 1.094.756 1.078.41-.016.877-.274 1.4-.772.522-.491 1.061-1.126 1.624-1.907a35.309 35.309 0 0 0 1.706-2.606c.571-.957 1.118-1.906 1.64-2.847.29-.523.539-.981.805-1.464.024-.072.032-.137.056-.21.298-.989.603-1.881.901-2.678.298-.796.571-1.44.812-1.946.242-.507.411-.772.507-.813.177-.096.394-.152.668-.16.273-.008.539.016.796.072.265.056.491.137.684.233.193.097.289.201.289.322 0 .056-.08.322-.249.788-.169.467-.37 1.054-.611 1.762a106.6 106.6 0 0 0-.789 2.397 61.533 61.533 0 0 0-.78 2.702c-.241.91-.45 1.802-.627 2.679-.169.868-.266 1.64-.274 2.308-.008.668.073 1.199.25 1.6.177.395.482.58.933.54.466-.016.965-.274 1.496-.756.531-.483 1.078-1.102 1.641-1.858s1.118-1.6 1.673-2.534a98.291 98.291 0 0 0 2.968-5.39c.418-.82.78-1.503 1.094-2.05a80.82 80.82 0 0 1 .635-2.992c.193-.797.37-1.271.523-1.424.096-.097.289-.21.595-.346.298-.137.611-.241.933-.322.322-.08.595-.104.813-.088.225.016.297.129.217.322-.234.635-.451 1.44-.652 2.397-.201.957-.41 2.018-.627 3.185-.209 1.166-.435 2.413-.668 3.748a202.417 202.417 0 0 1-.756 4.102 181.09 181.09 0 0 0 4.77-4.609c1.472-1.48 2.678-2.863 3.603-4.142a1.06 1.06 0 0 1 .306-.29.65.65 0 0 1 .354-.112c.104 0 .169.056.201.16.032.105-.008.29-.105.54-.249.579-.683 1.262-1.295 2.034a37.928 37.928 0 0 1-2.179 2.518c-.845.901-1.786 1.85-2.824 2.847a427.758 427.758 0 0 1-3.217 3.065 175.14 175.14 0 0 1-.997 4.52 59.52 59.52 0 0 1-1.207 4.32 42.282 42.282 0 0 1-1.456 3.853c-.523 1.19-1.11 2.236-1.761 3.12-.652.893-1.36 1.61-2.14 2.156a5.145 5.145 0 0 1-2.558.925 6.75 6.75 0 0 1-1.681-.096 4.007 4.007 0 0 1-1.616-.668c-.475-.338-.829-.812-1.062-1.424-.233-.611-.233-1.4 0-2.373.193-.812.659-1.729 1.383-2.75.724-1.022 1.617-2.1 2.671-3.258a70.536 70.536 0 0 1 3.563-3.587c1.319-1.239 2.662-2.502 4.046-3.78.289-1.392.563-2.776.828-4.127.258-1.36.499-2.646.716-3.869-.33.676-.7 1.4-1.102 2.164a39.9 39.9 0 0 1-1.311 2.268 34.682 34.682 0 0 1-1.456 2.164c-.506.7-1.021 1.31-1.56 1.85-.531.53-1.07.957-1.601 1.279-.531.321-1.054.49-1.552.506-.893.04-1.585-.16-2.083-.595-.491-.434-.837-1.03-1.03-1.785-.193-.757-.265-1.617-.217-2.59.032-.724.169-1.48.289-2.237-.088.153-.169.306-.265.467a53.12 53.12 0 0 1-1.601 2.501 20.859 20.859 0 0 1-1.673 2.164c-.563.627-1.118 1.142-1.657 1.528-.539.386-1.045.572-1.512.555-.659-.016-1.174-.265-1.544-.724-.37-.466-.62-1.102-.756-1.922-.137-.812-.169-1.761-.105-2.847a34.04 34.04 0 0 1 .418-3.523 85.473 85.473 0 0 1-2.083 3.692 44.198 44.198 0 0 1-2.324 3.563c-.789 1.078-1.553 1.97-2.309 2.678-.756.708-1.432 1.054-2.035 1.03-.853-.016-1.464-.434-1.834-1.239-.37-.804-.555-1.858-.571-3.153-.008-.957.097-2.059.241-3.225a45.326 45.326 0 0 1-1.375 2.268c-.595.893-1.19 1.69-1.786 2.389-.603.7-1.206 1.263-1.818 1.697-.611.434-1.206.668-1.785.684-.893.04-1.569-.201-2.035-.716-.467-.515-.772-1.207-.917-2.075-.145-.877-.161-1.874-.04-2.993a30.88 30.88 0 0 1 .563-3.474c.265-1.19.579-2.357.949-3.507.37-1.142.724-2.18 1.078-3.097.354-.917.659-1.673.933-2.252.273-.58.45-.893.555-.933.177-.097.394-.153.667-.161.274-.008.539.016.797.072.257.057.49.137.683.234.193.096.29.2.29.321 0 .057-.097.354-.29.885a154.585 154.585 0 0 0-1.665 4.906 92.482 92.482 0 0 0-.973 3.186 54.89 54.89 0 0 0-.812 3.153c-.234 1.03-.386 1.938-.451 2.735-.072.796-.032 1.431.113 1.906.145.475.442.692.885.651.482-.04 1.013-.345 1.584-.916.571-.572 1.166-1.295 1.786-2.164a36.163 36.163 0 0 0 1.85-2.92 98.938 98.938 0 0 0 1.898-3.499c.193-.925.346-1.826.587-2.783.451-1.778.941-3.531 1.48-5.276a142.656 142.656 0 0 1 1.569-4.802c-.129.016-.258.04-.378.056l-.974.145c-.434.064-.876.128-1.311.2-.466.073-.933.146-1.407.21-.402.048-.797.153-1.199.185-.177.016-.362.064-.539.088-.193.025-.386.04-.579.065-.346.04-.667.145-1.021.064-.274-.056-.475-.185-.596-.378a1.527 1.527 0 0 1-.233-.635 2.223 2.223 0 0 1 .032-.724 3.24 3.24 0 0 1 .218-.7c.136-.314.305-.58.506-.796.201-.226.411-.395.612-.523a2.74 2.74 0 0 1 .539-.266c.152-.048.265-.064.321-.04.33.04.579.137.756.29.177.153.298.33.378.523.073.193.105.394.089.61-.024.21-.048.411-.089.58-.056.201-.144.33-.217.499.25-.032.523-.073.756-.105.571-.112 1.279-.209 2.108-.314Zm-12.822 10.907a41.807 41.807 0 0 0-1.013 3.749c-.161.74-.241 1.456-.354 2.188a32.584 32.584 0 0 1-.418-1.52 37.105 37.105 0 0 1-.612-3.057 27.92 27.92 0 0 1-.233-1.89c.933-.837 1.955-1.762 3.049-2.767.378-.346.772-.716 1.158-1.078-.145.354-.298.732-.459 1.158-.361.957-.74 2.027-1.118 3.217Zm9.645-6.507 1.592-.241c-.08.265-.169.539-.257.812a103.24 103.24 0 0 0-1.52 5.414c-.218.86-.354 1.68-.531 2.525 0 0 0 .008-.008.008a99.286 99.286 0 0 1-1.69 3.089c-.193.33-.378.66-.571.973.121-.466.25-.933.386-1.407.298-1.046.62-2.076.95-3.105.329-1.03.643-1.955.925-2.783.289-.829.522-1.504.715-2.027.314-.853.451-1.255.451-1.778 0-.53-.161-1.03-.442-1.48Zm2.742-15.628a.936.936 0 0 1 .628.378c.177.225.281.498.321.812.041.322-.056.62-.289.885a147.295 147.295 0 0 1-4.842 5.405 183.76 183.76 0 0 1-4.899 5.02 169.046 169.046 0 0 1-4.641 4.407 286.924 286.924 0 0 1-3.997 3.604c.016 0 .032.008.032.032a28.94 28.94 0 0 0 .33 3.33c.144.957.362 2.05.651 3.274.29 1.222.684 2.501 1.191 3.836a29.295 29.295 0 0 0 1.906 4.03 20.563 20.563 0 0 0 2.775 3.797c.096.12.096.24 0 .361-.097.13-.25.234-.467.33-.209.097-.45.177-.724.25a2.528 2.528 0 0 1-.756.072c-.852-.056-1.6-.475-2.252-1.239-.651-.764-1.214-1.73-1.697-2.895a26.143 26.143 0 0 1-1.239-3.813 50.111 50.111 0 0 1-.828-4.014 68.622 68.622 0 0 1-.483-3.523c-.104-1.045-.177-1.81-.217-2.3l-1.279 1.078a55.277 55.277 0 0 1-1.922 3.973 55.005 55.005 0 0 1-2.035 3.515 27.382 27.382 0 0 1-2.011 2.831c-.66.813-1.271 1.448-1.834 1.89-.21.178-.394.194-.555.057-.153-.137-.265-.346-.33-.627-.072-.282-.08-.596-.048-.95.04-.345.153-.667.354-.957 2.035-2.927 3.692-5.67 4.971-8.228s2.252-4.907 2.919-7.038c.668-2.132 1.086-4.038 1.247-5.72.169-1.672.161-3.104-.016-4.27-.177-1.175-.466-2.075-.877-2.703-.41-.627-.852-.965-1.335-1.005a3.054 3.054 0 0 0-1.786.378 5.958 5.958 0 0 0-1.496 1.206 9.61 9.61 0 0 0-1.19 1.625 18.55 18.55 0 0 0-.9 1.69c-.25.53-.46.989-.612 1.367-.153.378-.266.595-.322.651-.153.193-.346.266-.571.201-.225-.056-.322-.25-.306-.579 0-.096.08-.362.234-.788.152-.426.378-.933.667-1.512.29-.58.644-1.199 1.062-1.85.418-.652.9-1.247 1.456-1.786a8.032 8.032 0 0 1 1.85-1.351 4.612 4.612 0 0 1 2.212-.54c1.126 0 2.035.234 2.735.7.699.467 1.222 1.11 1.584 1.931.354.829.563 1.794.611 2.912.049 1.118-.032 2.324-.233 3.635a33.71 33.71 0 0 1-.917 4.119 52.676 52.676 0 0 1-1.424 4.303c.99-.853 2.084-1.834 3.29-2.952a160.422 160.422 0 0 0 3.676-3.523 268.82 268.82 0 0 0 3.74-3.748 124.34 124.34 0 0 0 3.459-3.676 104.013 104.013 0 0 0 2.847-3.298c.837-1.021 1.472-1.882 1.923-2.606.193-.282.41-.418.659-.394Zm70.373-17.93c-.25.58-.684 1.264-1.295 2.036a38.262 38.262 0 0 1-2.18 2.517 78.24 78.24 0 0 1-2.823 2.848 446.22 446.22 0 0 1-3.218 3.064 175.148 175.148 0 0 1-.997 4.52 59.52 59.52 0 0 1-1.207 4.32 42.293 42.293 0 0 1-1.456 3.853c-.522 1.19-1.11 2.236-1.761 3.12-.652.894-1.359 1.61-2.14 2.156a5.14 5.14 0 0 1-2.557.925 6.757 6.757 0 0 1-1.682-.096 4.007 4.007 0 0 1-1.616-.668c-.475-.337-.829-.812-1.062-1.423-.233-.612-.233-1.4 0-2.373.193-.813.66-1.73 1.383-2.751.724-1.021 1.617-2.1 2.671-3.258a70.953 70.953 0 0 1 3.563-3.587c1.319-1.239 2.663-2.502 4.046-3.78.29-1.392.563-2.775.828-4.127.258-1.359.499-2.646.716-3.869-.329.676-.699 1.4-1.102 2.164a39.9 39.9 0 0 1-1.311 2.268 34.682 34.682 0 0 1-1.456 2.164c-.506.7-1.021 1.311-1.56 1.85-.531.53-1.07.957-1.601 1.279-.531.322-1.053.49-1.552.507-.893.04-1.585-.161-2.083-.596-.491-.434-.837-1.03-1.03-1.785-.193-.756-.265-1.617-.217-2.59.032-.74.169-1.512.298-2.284-.105.177-.177.33-.29.514a40.946 40.946 0 0 1-2.164 3.29c-.748 1.005-1.488 1.842-2.228 2.502-.74.66-1.423.98-2.067.957-.853-.024-1.48-.41-1.874-1.167-.394-.756-.619-1.753-.668-2.984-.048-1.23.049-2.638.274-4.214-.426.7-.853 1.4-1.327 2.115a47.634 47.634 0 0 1-1.85 2.59 22.775 22.775 0 0 1-1.931 2.228c-.651.651-1.303 1.174-1.946 1.568-.652.395-1.263.588-1.85.572-1.006-.016-1.834-.274-2.47-.773a4.464 4.464 0 0 1-1.423-1.93c-.314-.796-.467-1.697-.467-2.703 0-.61.065-1.23.153-1.858-.072.105-.129.21-.201.314a51.631 51.631 0 0 1-1.842 2.59 22.771 22.771 0 0 1-1.93 2.228c-.652.652-1.304 1.174-1.947 1.569-.652.394-1.263.587-1.85.57-1.005-.016-1.834-.273-2.469-.772a4.466 4.466 0 0 1-1.424-1.93c-.314-.796-.467-1.697-.467-2.703 0-1.005.129-2.043.378-3.096.057-.234.137-.467.21-.7-.25.153-.459.346-.732.474-.636.314-1.336.475-2.092.5h-.169a39.637 39.637 0 0 1-1.005 2.412c-.378.837-.788 1.6-1.239 2.3a9.127 9.127 0 0 1-1.407 1.746c-.491.467-.998.716-1.496.756-.756.056-1.376-.08-1.858-.41a3.952 3.952 0 0 1-1.183-1.263 5.9 5.9 0 0 1-.651-1.697 12.299 12.299 0 0 1-.274-1.745 10.86 10.86 0 0 1-.056-1.368c.008-.37.016-.563.016-.579-.024.056-.121.29-.29.684-.177.394-.394.876-.667 1.44a36.786 36.786 0 0 1-.941 1.801c-.362.644-.74 1.23-1.134 1.762-.395.53-.805.981-1.223 1.335-.418.362-.82.53-1.207.507-.579-.016-1.037-.25-1.367-.7-.33-.45-.563-1.038-.7-1.778-.136-.74-.193-1.576-.177-2.517a24.65 24.65 0 0 1 .234-2.912c.136-.997.313-1.979.539-2.952.225-.965.45-1.858.683-2.662.233-.805.467-1.48.7-2.02.233-.538.434-.892.611-1.045.137-.113.33-.16.596-.129.257.033.514.089.772.185.249.097.466.21.643.338.169.129.25.217.233.274-.273.579-.547 1.343-.828 2.3-.282.95-.539 1.97-.772 3.057a50.38 50.38 0 0 0-.595 3.273 30.348 30.348 0 0 0-.322 2.984c-.048.893-.032 1.617.04 2.18.08.563.241.845.499.845.193 0 .458-.258.788-.772.33-.515.7-1.207 1.118-2.076a68.6 68.6 0 0 0 1.351-3.024c.483-1.142.974-2.34 1.456-3.587.483-1.247.965-2.51 1.44-3.765.475-1.262.917-2.453 1.319-3.58.081-.192.249-.297.523-.305.273-.008.555.032.845.12.289.09.538.21.74.363.201.153.273.322.217.499-.29.836-.604 1.81-.933 2.92a48.794 48.794 0 0 0-1.513 6.94c-.152 1.143-.209 2.165-.176 3.057.04.893.193 1.61.466 2.156.274.547.716.804 1.335.788.25 0 .523-.193.813-.579.289-.386.587-.893.884-1.512.298-.62.604-1.32.901-2.091.298-.78.587-1.553.861-2.325a4.361 4.361 0 0 1-1.022-.74 4.4 4.4 0 0 1-.844-1.166 5.606 5.606 0 0 1-.507-1.6c-.104-.612-.104-1.304.016-2.076.016-.153.081-.426.177-.812.097-.387.225-.82.378-1.312.153-.482.346-.989.579-1.512a9.816 9.816 0 0 1 .789-1.44c.289-.434.619-.804.989-1.101.37-.298.764-.459 1.19-.483.346-.016.692.12 1.022.418.33.298.571.813.724 1.545.153.724.177 1.689.056 2.895-.112 1.199-.45 2.687-.989 4.448-.057.177-.145.459-.266.86-.112.395-.273.862-.466 1.384h.177c.466-.016.933-.168 1.407-.45a6.77 6.77 0 0 0 1.336-1.046c.144-.145.265-.313.402-.466.048-.105.08-.217.136-.322a13.394 13.394 0 0 1 1.73-2.75 9.278 9.278 0 0 1 2.236-1.996 5.325 5.325 0 0 1 2.63-.828c.644-.016 1.158.056 1.561.217.394.169.707.386.933.652.225.273.37.587.45.949.08.362.113.7.113 1.03 0 .33-.033.635-.089.932-.056.29-.112.507-.145.644-.41 1.198-.981 2.14-1.713 2.807-.74.668-1.504 1.166-2.308 1.496-.805.33-1.577.531-2.309.595-.74.065-1.311.105-1.713.105a14.521 14.521 0 0 0-.105 2.252c.033.708.145 1.327.338 1.858.193.531.467.95.813 1.247.345.297.788.434 1.311.394.539-.04 1.142-.338 1.801-.885.66-.555 1.336-1.247 2.035-2.091.7-.845 1.392-1.762 2.076-2.767a71.832 71.832 0 0 0 1.906-2.912c.048-.08.08-.145.129-.225.104-.25.193-.49.305-.74a13.397 13.397 0 0 1 1.73-2.75 9.278 9.278 0 0 1 2.236-1.996 5.324 5.324 0 0 1 2.63-.828c.643-.016 1.158.056 1.56.217.394.169.708.386.933.652.226.273.37.587.451.949.08.362.112.7.112 1.03 0 .329-.032.635-.088.932-.056.29-.113.507-.145.644-.41 1.198-.981 2.14-1.713 2.807-.74.668-1.504 1.166-2.309 1.496-.804.33-1.576.53-2.308.595-.732.065-1.311.105-1.713.105a14.521 14.521 0 0 0-.105 2.252c.032.708.145 1.327.338 1.858.193.53.466.95.812 1.247.346.297.789.434 1.311.394.539-.04 1.143-.338 1.802-.885.66-.555 1.335-1.247 2.035-2.091.7-.845 1.392-1.762 2.075-2.767a89.542 89.542 0 0 0 1.907-2.912c.305-.49.531-.893.788-1.335.129-.652.217-1.279.37-1.947.386-1.673.82-3.33 1.295-4.97.474-1.641.941-3.137 1.408-4.497-.813.177-1.601.346-2.357.523-.756.177-1.432.338-2.035.483-.603.144-1.102.265-1.496.345-.394.089-.628.145-.684.161-.314.04-.563.033-.756-.016a1.489 1.489 0 0 1-.467-.2.611.611 0 0 1-.233-.322 1.094 1.094 0 0 1-.056-.33c0-.25.08-.499.233-.74a.86.86 0 0 1 .636-.419c.249-.04.41-.024.482.057.073.08.113.136.129.177.056.273.08.418.056.434-.016.016-.008.032.032.032.797-.177 1.521-.33 2.172-.466a209.08 209.08 0 0 0 2.228-.483c.837-.185 1.697-.362 2.59-.539a59.875 59.875 0 0 1 1.094-2.895c.298-.724.499-1.11.595-1.15.177-.097.402-.154.684-.162.281-.008.555.017.812.073.266.056.491.137.684.233.193.097.29.201.29.322 0 .04-.089.314-.266.828-.177.515-.394 1.207-.667 2.076 1.166-.234 2.203-.427 3.112-.58.909-.152 1.513-.24 1.802-.265.41-.016.74.04 1.006.193.265.145.353.49.273 1.03-.08.41-.29.756-.627 1.045-.338.29-.732.435-1.183.435a.467.467 0 0 1-.362-.145.673.673 0 0 1-.161-.338.81.81 0 0 1 .041-.41.624.624 0 0 1 .249-.338c-.024-.056-.153-.08-.41-.056-.25.016-.579.056-.99.12-.41.057-.884.145-1.423.25-.547.104-1.126.217-1.746.337-.313.934-.635 1.971-.989 3.113s-.708 2.325-1.078 3.547a224.72 224.72 0 0 0-1.078 3.709 97.742 97.742 0 0 0-.933 3.619 69.432 69.432 0 0 0-.683 3.258 22.823 22.823 0 0 0-.346 2.63c-.049.748-.008 1.327.112 1.745.129.419.362.62.716.596.41-.017.869-.274 1.384-.773a14.34 14.34 0 0 0 1.616-1.906 36.808 36.808 0 0 0 1.714-2.598 89.763 89.763 0 0 0 1.657-2.847c.297-.531.547-.998.812-1.488a5.98 5.98 0 0 0 .048-.185c.298-.99.603-1.883.901-2.679.298-.796.571-1.44.812-1.946.242-.507.411-.773.507-.813.177-.096.394-.153.668-.16.273-.009.539.015.796.072.266.056.491.136.684.233.193.096.289.201.289.322 0 .056-.08.321-.249.788-.169.466-.37 1.054-.611 1.761a106.6 106.6 0 0 0-.789 2.397 62.902 62.902 0 0 0-.78 2.703c-.241.909-.45 1.802-.627 2.678-.169.87-.266 1.641-.274 2.309-.008.668.073 1.198.25 1.6.177.395.482.58.933.54.466-.017.965-.274 1.496-.757.531-.482 1.078-1.102 1.641-1.858s1.118-1.6 1.673-2.533a98.291 98.291 0 0 0 2.968-5.39c.418-.82.78-1.503 1.094-2.05.233-1.199.45-2.204.635-3 .193-.797.37-1.272.523-1.424.096-.097.29-.21.595-.346a5.33 5.33 0 0 1 .933-.322 2.62 2.62 0 0 1 .813-.088c.225.024.297.128.217.321-.233.636-.451 1.44-.652 2.397-.201.957-.41 2.02-.627 3.185-.209 1.167-.434 2.413-.668 3.749a202.281 202.281 0 0 1-.756 4.102 181.09 181.09 0 0 0 4.77-4.61c1.472-1.48 2.678-2.863 3.603-4.142a1.06 1.06 0 0 1 .306-.289.65.65 0 0 1 .354-.113c.113 0 .169.057.201.161.04.057.008.242-.088.49Zm-33.936-4.962.837-.185c.394-.088.893-.201 1.472-.346-.024.073-.041.145-.065.21-.152.538-.281 1.093-.426 1.64-.466-.547-1.078-.99-1.818-1.319Z" fill="#9630D8"/><path d="M177.268 42.38c-.901.966-1.641 1.835-2.228 2.631-.579.796-.941 1.464-1.078 2.01-.273 1.167-.128 2.02.435 2.575.563.547 1.367.812 2.413.764.772-.016 1.496-.434 2.163-1.247.668-.812 1.287-1.882 1.858-3.217.571-1.327 1.102-2.856 1.601-4.577.499-1.73.957-3.507 1.383-5.349a319.785 319.785 0 0 0-3.523 3.346 105.68 105.68 0 0 0-3.024 3.065ZM126.594 71.233c-.225 1.287-.313 2.316-.265 3.08.048.764.297 1.142.74 1.118.37-.024.796-.265 1.279-.724.482-.466.997-1.07 1.544-1.817a45.68 45.68 0 0 0 1.705-2.534 60.575 60.575 0 0 0 1.714-2.88c.555-.98 1.077-1.93 1.568-2.847.499-.917.933-1.737 1.319-2.461a79.274 79.274 0 0 1 1.569-5.832 172.31 172.31 0 0 1 1.745-5.365c-1.223.153-2.461.322-3.708.507-1.247.185-2.485.362-3.708.539-.467 1.36-.973 2.887-1.512 4.577a355.945 355.945 0 0 0-1.601 5.147 135.151 135.151 0 0 0-1.424 5.076 61.906 61.906 0 0 0-.965 4.416Zm3.499-3.757c.418-1.616.885-3.273 1.4-4.97a487.608 487.608 0 0 1 1.584-5.108 278.3 278.3 0 0 1 .99-3.024l1.673-.242c-.153.475-.298.95-.451 1.44a82.213 82.213 0 0 0-1.536 5.67l-1.158 2.148c-.491.901-.998 1.842-1.545 2.808a47.889 47.889 0 0 1-1.102 1.874c.041-.193.089-.395.145-.596ZM147.242 80.973c-.901.966-1.641 1.834-2.228 2.63-.579.797-.941 1.465-1.078 2.012-.274 1.166-.129 2.018.434 2.573.563.547 1.368.813 2.413.764.772-.016 1.496-.434 2.164-1.246.668-.813 1.287-1.882 1.858-3.218.571-1.327 1.102-2.855 1.601-4.576.498-1.722.957-3.507 1.383-5.35a311.97 311.97 0 0 0-3.523 3.347 105.68 105.68 0 0 0-3.024 3.064ZM75.623 35.375c3.048-3.13 4.496-7.553 4.303-13.151.193-4.36-1.6-5.623-4.625-5.92-.426-3.588-2.091-6.186-4.97-7.738a10.46 10.46 0 0 0-1.955-.804c-.194-2.051-.547-3.548-1.07-4.569-.86-1.681-2.108-2.18-2.992-2.309a3.61 3.61 0 0 0-.515-.032c-.99 0-1.97.402-2.912 1.183-.869.724-1.81 1.914-2.863 3.611-1.014-1.874-2.454-3.555-4.529-3.555-.402 0-.804.064-1.214.193-2.663.837-4.931 4.882-7.819 13.923a44.448 44.448 0 0 0-3.096 4.65c-.25.434-.491.868-.724 1.31a34.78 34.78 0 0 0-5.912-.506c-3.692 0-7.328.587-10.819 1.737A34.735 34.735 0 0 0 8.315 33.935c-.708.845-1.4 1.737-2.043 2.67C1.888 42.935-.324 50.498.038 57.89c.394 7.93 3.797 15 9.596 19.907.684.58 1.416 1.142 2.18 1.665 2.461 1.705 5.252 3.153 8.293 4.303 5.47 2.076 11.703 3.17 18.041 3.17 3.306 0 6.588-.298 9.733-.885 9.877-1.834 17.687-6.282 21.999-12.516a21.07 21.07 0 0 0 2.389-4.528c1.745-4.601 1.914-8.72.482-11.905a9.73 9.73 0 0 0-3.869-4.375c-1.504-.91-3.29-1.44-5.156-1.537-.032 0-.072 0-.104-.008 1.64-2.437 2.952-5.8 3.314-11.269 3.643-.828 6.555-2.348 8.687-4.536Zm-15.01 17.47c.861-.225 1.754-.37 2.655-.37.137 0 .273 0 .41.008 1.585.08 3.17.515 4.545 1.352a8.3 8.3 0 0 1 3.346 3.796c1.158 2.598 1.279 6.202-.515 10.915a19.493 19.493 0 0 1-2.244 4.247c-4.335 6.266-12.242 10.32-21.17 11.977-3.073.57-6.274.86-9.5.86-6.024 0-12.113-1.013-17.575-3.08-2.871-1.094-5.582-2.478-8.02-4.159a26.781 26.781 0 0 1-2.082-1.592c-5.896-4.987-8.792-11.84-9.138-18.975-.346-7.07 1.81-14.414 6-20.478a33.369 33.369 0 0 1 16.98-12.717 33.212 33.212 0 0 1 10.409-1.673c2.204 0 4.424.217 6.628.66.361-.717.732-1.424 1.134-2.116a43.36 43.36 0 0 1 3.145-4.69c2.662-8.38 4.866-12.612 7.038-13.295.281-.089.555-.129.82-.129 1.69 0 3.089 1.77 4.384 5.091 1.472-2.686 2.759-4.544 3.845-5.453.7-.587 1.391-.877 2.075-.877.112 0 .217.008.33.024.852.121 1.528.66 2.019 1.61.522 1.013.852 2.702 1.005 4.986.949.217 1.802.53 2.558.933 2.759 1.488 4.223 4.094 4.383 7.818l.322.008c3 .137 4.376.797 4.207 4.722.185 5.244-1.126 9.314-3.933 12.194-2.148 2.204-5.148 3.66-8.977 4.383-.314 7.698-2.389 11.18-5.083 14.02Z" fill="#9630D8"/><path d="M75.912 22.2c.073-1.617-.45-1.89-1.608-1.947A62.272 62.272 0 0 0 73 20.221h-.266a1.356 1.356 0 0 1-1.343-1.367v-.04c.129-3.347-.86-5.583-2.96-6.717-1.247-.676-2.904-1.013-4.955-1.013-1.319 0-2.815.136-4.464.418-.032.016-.056.032-.088.048.112.37.225.716.337 1.11a1.355 1.355 0 0 1-1.31 1.721 1.366 1.366 0 0 1-1.312-.989c-.273-.957-.523-1.802-.764-2.582-.008-.024-.024-.048-.032-.072v-.032c-.941-3-1.673-4.617-2.252-4.617a.402.402 0 0 0-.097.016c-1.255.394-2.928 4.126-5.325 11.727a1.27 1.27 0 0 1-.233.45 40.78 40.78 0 0 0-3.089 4.577 40.266 40.266 0 0 0-2.437 4.947 1.366 1.366 0 0 1-1.255.845 1.36 1.36 0 0 1-1.255-1.874c.09-.21.194-.41.282-.62a30.865 30.865 0 0 0-5.421-.483c-3.274 0-6.507.523-9.588 1.545a30.645 30.645 0 0 0-13.786 9.314 31.094 31.094 0 0 0-1.81 2.357c-3.861 5.574-5.84 12.322-5.526 18.806.314 6.41 2.904 12.563 8.18 17.028.595.506 1.215.98 1.866 1.431 2.252 1.553 4.754 2.84 7.432 3.853 5.156 1.955 10.915 2.912 16.61 2.912 3.057 0 6.097-.274 9.009-.82 8.26-1.537 15.524-5.205 19.425-10.851a16.989 16.989 0 0 0 1.93-3.668c1.504-3.958 1.464-6.861.58-8.848a5.653 5.653 0 0 0-2.277-2.566c-.981-.595-2.123-.909-3.266-.965-.128-.008-.257-.008-.394-.008-1.801 0-3.539.62-4.625 1.761-.064.065-.136.097-.209.145-.137 2.26-1.11 4.762-2.63 7.038-1.657 2.486-3.933 4.746-6.322 6.121-2.968 1.714-6.708 2.534-10.988 2.534-1.158 0-2.356-.056-3.587-.177-5.8-.563-12.403-2.421-19.296-5.445a1.354 1.354 0 0 1-.7-1.786 1.354 1.354 0 0 1 1.786-.7c4.689 2.06 9.21 3.523 13.4 4.408 3-5.968 4.022-10.955 3.547-14.808-.322-2.582-1.31-4.633-2.79-6.113-1.489-1.48-3.492-2.413-5.84-2.743a14.801 14.801 0 0 0-2.011-.137c-3.137 0-6.717.941-10.44 2.904a1.372 1.372 0 0 1-1.842-.571 1.356 1.356 0 0 1 .57-1.834c4.127-2.18 8.149-3.217 11.72-3.217.82 0 1.608.056 2.373.16 2.935.41 5.47 1.601 7.384 3.508 1.914 1.906 3.185 4.496 3.579 7.705.515 4.175-.483 9.451-3.467 15.62.764.113 1.544.266 2.284.339 1.135.112 2.229.152 3.29.152h.17c-.105-1.222-.218-2.445-.266-3.684a75.749 75.749 0 0 1-.024-5.059c.016-.74.619-1.32 1.35-1.32h.041a1.356 1.356 0 0 1 1.32 1.392 70.594 70.594 0 0 0 .031 4.883c.049 1.198.153 2.405.258 3.603 2.598-.273 4.914-.892 6.797-1.978.168-.097.33-.234.498-.338.483-2.767 1.199-6.5 2.22-10.183 1.118-4.054 2.598-7.98 4.513-10.328.265-.33.66-.499 1.053-.499.298 0 .604.097.853.306.579.474.668 1.327.193 1.906-1.223 1.504-2.276 3.885-3.161 6.556.169-.17.313-.322.498-.507 3.958-3.998 7.746-5.864 8.285-15.604-.305.032-.603.064-.917.088h-.088a1.355 1.355 0 0 1-1.351-1.27 1.358 1.358 0 0 1 1.27-1.44c4.931-.314 8.543-1.658 10.851-4.022 2.276-2.341 3.33-5.76 3.17-10.264l.015-.096Z" fill="#9630D8"/><path d="M52.506 61.516c-.25 1.094-.475 2.148-.676 3.17a17.79 17.79 0 0 0 1.6-2.052c1.054-1.577 1.794-3.242 2.084-4.778a28.117 28.117 0 0 0-2.896 3.475c-.032.048-.072.12-.112.185ZM64.418 8.405c-.129-1.617-.362-2.759-.684-3.386 0 0-.016-.016-.048-.016-.04 0-.104.024-.209.112-.675.571-1.52 1.722-2.501 3.395a26.489 26.489 0 0 1 3.442-.105Z" fill="#9630D8"/></svg>