<svg width="203" height="96" fill="none" xmlns="http://www.w3.org/2000/svg"><path d="M141.022 19.878c.049-.516.033-.91-.057-1.188-.091-.278-.271-.393-.549-.352-.156.017-.303.156-.442.401-.14.246-.279.55-.418.918-.139.368-.262.77-.369 1.203-.106.435-.204.852-.294 1.245-.091.393-.164.754-.222 1.081-.057.328-.098.549-.114.664a3.825 3.825 0 0 0-.09.737c-.017.335-.017.704.016 1.114.033.4.09.819.18 1.244.09.426.238.795.459 1.114.336-1.007.606-1.884.811-2.62.204-.738.327-1.18.368-1.319.18-.868.328-1.663.459-2.383.123-.73.205-1.351.262-1.86ZM148.36 28.993c.581-.279 1.138-.696 1.67-1.261.533-.566.967-1.352 1.302-2.35.254-.812.394-1.45.402-1.926.008-.474-.041-.835-.148-1.08-.106-.246-.254-.402-.442-.46-.188-.056-.352-.081-.491-.056-.631.098-1.22.384-1.777.86a7.61 7.61 0 0 0-1.491 1.793c-.442.72-.827 1.523-1.138 2.4-.32.876-.549 1.768-.705 2.677.279 0 .672-.032 1.18-.09a5.418 5.418 0 0 0 1.638-.507ZM160.562 28.993c.582-.279 1.139-.696 1.671-1.261.532-.566.966-1.352 1.302-2.35.254-.812.393-1.45.401-1.926.008-.474-.041-.835-.147-1.08-.107-.246-.254-.402-.442-.46-.189-.056-.353-.081-.492-.056-.63.098-1.22.384-1.777.86a7.606 7.606 0 0 0-1.49 1.793c-.443.72-.827 1.523-1.139 2.4a17.039 17.039 0 0 0-.712 2.677c.278 0 .671-.032 1.179-.09a5.386 5.386 0 0 0 1.646-.507Z" fill="#fff"/><path d="M202.591 21.401c-.131-.344-.221-.712-.532-.942-.287-.213-.672-.245-1.024-.22-.827.065-1.744.065-2.482.482-.671.377-1.195.959-1.662 1.564-.598.77-1.13 1.606-1.875 2.236a34.28 34.28 0 0 1 .982-4.439c.164-.573.352-1.162.312-1.76-.041-.573-.295-1.114-.582-1.614-.712-1.228-1.965-1.08-3.218-.925-1.221.147-2.457.532-3.342 1.417-.557.557-.892 1.286-1.236 2.71a80.438 80.438 0 0 0-.598 2.744c-.287.516-.598 1.122-.958 1.818-.41.81-.868 1.679-1.368 2.588a99.8 99.8 0 0 1-1.572 2.752c-.181.31-.369.614-.557.9a63.604 63.604 0 0 1 .991-3.521c.278-.884.54-1.679.778-2.383l.614-1.76c.278-.779.409-1.172.409-1.688 0-1.146-.663-2.162-1.769-2.703a5.543 5.543 0 0 0-1.302-.45 6.41 6.41 0 0 0-1.507-.14 4.193 4.193 0 0 0-1.777.451c-.95.475-1.376 1.368-1.711 2.048a26.83 26.83 0 0 0-.918 2.195 46.176 46.176 0 0 0-.966 2.858c-.221.41-.418.786-.655 1.212-.5.9-1.032 1.81-1.589 2.727.066-.303.139-.614.213-.934.27-1.146.573-2.342.917-3.57a253.17 253.17 0 0 1 1.081-3.735l1.098-3.603c.172-.565.335-1.114.499-1.622l.246-.049.254-.05c1.302 1.45 3.742 1.262 5.282-.056.794-.68 1.319-1.573 1.531-2.711.336-2.375-1.015-3.407-1.629-3.743-.705-.385-1.532-.565-2.482-.516a17.67 17.67 0 0 0-1.253.156c-.131-.975-.761-1.826-1.736-2.31a5.488 5.488 0 0 0-1.31-.45 6.345 6.345 0 0 0-1.499-.14c-.663.025-1.269.173-1.785.443-1.04.516-1.466 1.54-1.876 2.53a71.543 71.543 0 0 0-.647 1.655c-.409.082-.819.172-1.22.262-.835.188-1.58.344-2.236.483l-.548.115c-.5-.303-1.22-.532-2.211-.385a3.553 3.553 0 0 0-2.506 1.638 4 4 0 0 0-.647 2.178c0 .36.057.73.188 1.155a3.291 3.291 0 0 0 1.179 1.638c.148.106.352.147.516.237H162.822a8.005 8.005 0 0 0-3.971 1.245c-.598.369-1.155.82-1.687 1.31-.402.205-.754.46-1.008.795a4.822 4.822 0 0 0-.835-1.499c-.5-.614-1.163-1.089-1.99-1.433-.762-.311-1.63-.45-2.678-.418h-.033a8.009 8.009 0 0 0-3.972 1.245c-.54.336-1.056.729-1.548 1.163-.041.025-.09.041-.131.074a9.881 9.881 0 0 0-.188-2.138c-.278-1.302-.778-2.276-1.548-2.98-1.097-1-2.211-1.164-2.94-1.123-.999.041-1.949.418-2.776 1.081-.459.377-.876.811-1.253 1.303a6.252 6.252 0 0 0-.549-.197 5.121 5.121 0 0 0-1.728-.23 3.145 3.145 0 0 0-.622.083v-.148l-.066.164c-.999.246-1.818.942-2.227 1.965-.23.623-.459 1.27-.705 1.933-.196-.418-.532-.852-1.081-1.253a5.969 5.969 0 0 0-1.253-.663 5.73 5.73 0 0 0-1.425-.344c-.999-.123-1.941.147-2.645.753l-.041.033c-.491.442-.876 1.04-1.294 1.998-.278.64-.548 1.433-.819 2.367-.254.86-.491 1.818-.737 2.858-.049.213-.073.434-.123.655-.163-.262-.294-.556-.491-.794a11.09 11.09 0 0 0-1.826-1.785c.376-.18.68-.402.901-.623a16.145 16.145 0 0 0 2.014-2.276 24.63 24.63 0 0 0 1.655-2.572c.499-.9.941-1.834 1.318-2.784.385-.983.688-1.966.901-2.94.442-2.064.565-3.792.377-5.283-.205-1.63-.713-2.997-1.515-4.07a6.491 6.491 0 0 0-3.391-2.383c-1.163-.36-2.449-.467-3.816-.344-1.237.123-2.539.434-3.882.917a24.68 24.68 0 0 0-3.792 1.77 27.935 27.935 0 0 0-3.587 2.431 24.27 24.27 0 0 0-3.153 2.973 18.708 18.708 0 0 0-2.399 3.366c-.705 1.27-1.163 2.564-1.343 3.85-.287 1.867-.148 3.562.417 5.02a10.257 10.257 0 0 0 2.334 3.603c.95.95 2.056 1.76 3.292 2.424a38.03 38.03 0 0 0 3.391 1.63c1.065.458 2.096.909 3.087 1.36.819.368 1.532.777 2.105 1.211.393.303.663.606.811.926.049.106.065.393-.041.827-.041.139-.148.442-.5.958-.245.368-.647.745-1.195 1.138-.598.426-1.393.803-2.359 1.139-.966.327-2.17.524-3.595.573-.967.049-1.753-.05-2.359-.279-.565-.212-.999-.466-1.261-.737-.246-.253-.303-.442-.336-.647 0 0 .099-.172.557-.417.23-.123.77-.32 1.818-.336a3.47 3.47 0 0 0 2.08-.696 3.453 3.453 0 0 0 1.262-1.72c.294-.917.163-1.908-.41-2.768-.368-.524-1.081-1.18-2.457-1.36a9.26 9.26 0 0 0-3.652.312 9.585 9.585 0 0 0-3.071 1.54 10.186 10.186 0 0 0-2.228 2.333 8.313 8.313 0 0 0-1.294 2.973 6.793 6.793 0 0 0 .148 3.39c.36 1.18 1.056 2.212 2.088 3.072.925.778 2.088 1.376 3.546 1.818.115.032.262.049.377.082-.443.32-.868.671-1.261 1.048a13.335 13.335 0 0 0-1.86 2.285 21.995 21.995 0 0 0-1.22 2.13 16.315 16.315 0 0 0-.802 1.825c-.262.721-.393 1.188-.385 1.548-.09 1.597.827 2.924 2.285 3.309 1.228.335 2.506-.099 3.177-.942.361-.385.582-.819.868-1.507.139-.344.328-.761.565-1.261.221-.475.492-.975.803-1.507a7.88 7.88 0 0 1 .901-1.228c.205-.23.426-.426.671-.582.107.27.23.696.328 1.36.147.974.147 2.219 0 3.701-.148 1.523-.541 3.3-1.163 5.29-.631 2.015-1.581 4.3-2.817 6.774-1.237 2.48-2.875 5.192-4.898 8.09a4.801 4.801 0 0 0-.786 2.163c-.073.663-.04 1.302.099 1.859.196.827.59 1.507 1.17 2.023 1.139.999 2.777.99 3.956.024.729-.581 1.482-1.343 2.277-2.334.729-.9 1.482-1.957 2.227-3.136.475-.754.95-1.548 1.425-2.392.181.95.393 1.908.639 2.9a29.282 29.282 0 0 0 1.384 4.258c.59 1.425 1.319 2.653 2.162 3.644 1.122 1.319 2.547 2.08 4.12 2.187a4.8 4.8 0 0 0 .344.016c.409 0 .827-.049 1.277-.164a6.981 6.981 0 0 0 1.188-.41 3.876 3.876 0 0 0 1.49-1.146c.565-.737.704-1.638.475-2.497 1.106-.05 2.203-.443 3.235-1.18.467-.335.934-.745 1.392-1.195.025.049.033.123.057.172.803 1.744 2.343 2.768 4.202 2.809h.123c1.294 0 2.587-.598 3.84-1.77.901-.843 1.778-1.85 2.687-3.095 0 0 0-.008.008-.008.196.417.426.794.696 1.13.852 1.09 2.121 1.712 3.538 1.752 1.073.041 2.162-.31 3.194-1.048.606-.434 1.204-.983 1.81-1.63a5.655 5.655 0 0 0 1.154 1.41 5.016 5.016 0 0 0 2.212 1.113c-.304.32-.598.63-.877.934-1.146 1.26-2.129 2.456-2.923 3.562-.95 1.335-1.548 2.555-1.827 3.726-.36 1.507-.327 2.85.099 3.972a5.671 5.671 0 0 0 2.031 2.678 6.74 6.74 0 0 0 2.727 1.13 9.927 9.927 0 0 0 1.719.156 7.85 7.85 0 0 0 4.578-1.45c1.032-.72 1.966-1.662 2.793-2.8.778-1.065 1.474-2.302 2.072-3.678a44.582 44.582 0 0 0 1.572-4.176 62.99 62.99 0 0 0 1.286-4.603c.303-1.285.59-2.571.868-3.857.917-.876 1.818-1.728 2.686-2.563a89.929 89.929 0 0 0 2.965-2.998 42.83 42.83 0 0 0 2.367-2.727c.77-.974 1.31-1.842 1.711-2.768.557-1.286.394-4.258-1.375-4.496-.926-.123-2.203.213-2.99.704-.442.279-.81.63-1.04.983a30.185 30.185 0 0 1-2.276 2.727c.196-1.073.393-2.047.581-2.948.18-.852.369-1.548.532-1.998.426-1.171.156-2.858-.958-3.604-.884-.59-2.424-.417-3.39-.147a7.895 7.895 0 0 0-1.212.434c-.614.278-1.04.549-1.376.884-.565.574-.901 1.303-1.253 2.72-.18.745-.377 1.662-.598 2.751a41.064 41.064 0 0 0-.958 1.818 94.755 94.755 0 0 1-2.94 5.34c-.189.31-.369.614-.557.9.074-.286.147-.59.229-.884.238-.893.492-1.769.762-2.629.278-.892.54-1.687.778-2.391l.614-1.76c.27-.754.41-1.164.41-1.688 0-1.138-.656-2.146-1.769-2.703a5.543 5.543 0 0 0-1.302-.45 5.807 5.807 0 0 0-1.491-.14 4.182 4.182 0 0 0-1.769.443c-.966.475-1.4 1.376-1.728 2.056-.27.565-.581 1.302-.917 2.194-.32.852-.647 1.819-.967 2.875-.221.401-.417.77-.655 1.196a89.583 89.583 0 0 1-1.302 2.268c.041-.18.09-.352.139-.54.418-1.614.877-3.268 1.384-4.98a215.907 215.907 0 0 1 1.573-5.077l.983-3.022.81-.098c.467-.058.893-.099 1.278-.14.008.017.024.025.033.041.589.737 1.457 1.139 2.555 1.139h.008a4.634 4.634 0 0 0 2.834-1.114 4.541 4.541 0 0 0 1.515-2.612c.45-2.523-1.122-3.587-1.63-3.866a4.429 4.429 0 0 0-2.047-.508c-.23 0-.451 0-1.417.115l-1.655.205a2.82 2.82 0 0 0 .131-.852c0-1.147-.663-2.154-1.76-2.703a5.534 5.534 0 0 0-1.302-.45 6.557 6.557 0 0 0-1.499-.14 4.21 4.21 0 0 0-1.957.541c-.803.492-1.163 1.188-1.786 2.654-.245.59-.532 1.302-.835 2.12l-1.761.247c.041-.197.058-.369.058-.566 0-1.13-.656-2.137-1.761-2.702a5.543 5.543 0 0 0-1.302-.45 5.963 5.963 0 0 0-1.474-.14c-.672.017-1.278.164-1.81.442-1.04.508-1.442 1.483-1.949 2.703a52.13 52.13 0 0 0-.762 1.933l-1.147.155c-.024 0-.049.009-.073.009a4.249 4.249 0 0 0-.803-1.098c1.171-1.286 2.35-2.563 3.464-3.865a3.817 3.817 0 0 0 .917-2.965 4.259 4.259 0 0 0-.851-2.113 3.613 3.613 0 0 0-2.433-1.408 3.147 3.147 0 0 0-.835.024c.041-.033.082-.049.115-.082.581-.5 1.13-1.097 1.646-1.785l.008-.008a6.43 6.43 0 0 0 1.654 1.605c1.008.688 2.22.983 3.596.868 1.13-.082 2.186-.59 3.144-1.482.672-.63 1.294-1.4 1.859-2.285.099-.156.172-.336.262-.492.082.287.132.59.238.852.491 1.261 1.261 2.301 2.293 3.096 1.106.86 2.481 1.31 4.054 1.343.057 0 .123.008.18.008 1.056 0 2.121-.328 3.178-.966a13.629 13.629 0 0 0 2.481-1.99c.172-.172.336-.402.508-.59.467.843 1.04 1.613 1.801 2.203 1.106.86 2.482 1.31 4.054 1.343.058 0 .123.008.18.008 1.057 0 2.122-.327 3.178-.966a13.625 13.625 0 0 0 2.481-1.99c.361-.36.721-.745 1.073-1.155.098.262.164.557.287.794.843 1.614 2.375 2.564 4.177 2.605h.147c1.302 0 2.588-.557 3.808-1.654.344-.312.696-.672 1.04-1.049a5.84 5.84 0 0 0 1.171 1.433 4.99 4.99 0 0 0 2.203 1.114 88.54 88.54 0 0 0-.868.926 38.654 38.654 0 0 0-2.924 3.57c-.95 1.327-1.547 2.547-1.826 3.726-.36 1.507-.327 2.85.107 3.98.426 1.114 1.105 2.007 2.022 2.662a6.797 6.797 0 0 0 2.728 1.13 9.927 9.927 0 0 0 1.719.156 7.891 7.891 0 0 0 4.578-1.441c1.024-.721 1.966-1.663 2.801-2.801.77-1.057 1.466-2.302 2.072-3.677a46.807 46.807 0 0 0 1.581-4.177c.475-1.45.901-2.997 1.285-4.602.303-1.286.598-2.572.869-3.858.917-.876 1.818-1.728 2.686-2.563a84.823 84.823 0 0 0 2.973-3.006 38.917 38.917 0 0 0 2.366-2.735c.762-.974 1.311-1.843 1.712-2.76a3.896 3.896 0 0 0 .262-1.777c-.106-.459-.221-.958-.393-1.425Zm-81.756 15.675c.213.573.467 1.097.794 1.548a4.335 4.335 0 0 0 3.391 1.785c.065 0 .131.008.196.008.279 0 .614-.049.967-.14a4.123 4.123 0 0 0-.574.705c-.393.639-.982 1.433-1.752 2.367a101.294 101.294 0 0 1-2.818 3.268 133.2 133.2 0 0 1-3.455 3.669 321.947 321.947 0 0 1-3.768 3.783c-.065.066-.139.131-.204.205a21.82 21.82 0 0 0 .253-4.111c-.065-1.45-.343-2.768-.843-3.907-.483-1.114-1.228-1.99-2.121-2.71a25.522 25.522 0 0 0 2.932-.877 16.12 16.12 0 0 0 3.202-1.613 12.59 12.59 0 0 0 2.85-2.547c.368-.442.671-.934.95-1.433Zm-21.58 2.604c-.63-.532-1.048-1.138-1.26-1.818a4.132 4.132 0 0 1-.09-2.072 5.755 5.755 0 0 1 .883-2.03 7.272 7.272 0 0 1 1.647-1.72 7.152 7.152 0 0 1 2.219-1.114 6.576 6.576 0 0 1 2.604-.222c.295.041.492.123.582.254a.45.45 0 0 1 .057.418c-.049.147-.156.278-.311.401a.8.8 0 0 1-.5.18c-1.261.017-2.285.238-3.063.647-.778.418-1.326.918-1.646 1.499-.319.581-.401 1.212-.27 1.892.139.68.475 1.302 1.024 1.867.54.565 1.285 1.024 2.235 1.376.95.352 2.089.508 3.407.442 1.679-.057 3.121-.295 4.341-.712 1.212-.418 2.227-.91 3.03-1.483.811-.573 1.433-1.179 1.867-1.818.434-.639.721-1.228.86-1.76.254-1.024.213-1.9-.115-2.621-.335-.72-.876-1.36-1.613-1.925s-1.613-1.073-2.621-1.523c-1.007-.45-2.055-.917-3.136-1.376a40.452 40.452 0 0 1-3.17-1.523 11.567 11.567 0 0 1-2.678-1.966 7.733 7.733 0 0 1-1.736-2.677c-.393-1.024-.483-2.253-.262-3.67.139-.966.483-1.949 1.04-2.948.549-.999 1.245-1.965 2.072-2.899a22.897 22.897 0 0 1 2.809-2.653 24.237 24.237 0 0 1 3.26-2.203 21.765 21.765 0 0 1 3.39-1.58c1.138-.418 2.211-.672 3.227-.77 1.015-.099 1.941-.017 2.784.237a3.95 3.95 0 0 1 2.048 1.433c.524.704.86 1.638 1.007 2.817.147 1.171.033 2.637-.336 4.398a15.99 15.99 0 0 1-.77 2.514c-.335.852-.728 1.67-1.171 2.473a19.53 19.53 0 0 1-1.466 2.277c-.532.72-1.097 1.36-1.687 1.908-.098.099-.254.189-.458.27a1.759 1.759 0 0 1-.549.132c-.156.008-.262-.017-.328-.09-.057-.066 0-.197.181-.369a12.57 12.57 0 0 0 1.425-1.736c.45-.663.859-1.376 1.228-2.13.36-.761.688-1.547.975-2.366a17.14 17.14 0 0 0 .663-2.473c.352-1.819.401-3.244.147-4.275-.254-1.04-.72-1.77-1.392-2.203-.671-.434-1.49-.606-2.457-.516-.966.09-1.99.368-3.063.827a18.356 18.356 0 0 0-3.194 1.793 20.6 20.6 0 0 0-2.874 2.383c-.86.86-1.564 1.737-2.121 2.621-.549.893-.836 1.72-.86 2.49-.041 1.163.18 2.154.647 2.973a7.434 7.434 0 0 0 1.883 2.145 14.157 14.157 0 0 0 2.662 1.63c.999.475 1.998.95 3.006 1.425a29.95 29.95 0 0 1 2.874 1.54 8.543 8.543 0 0 1 2.269 1.957c.597.745 1.007 1.646 1.212 2.678.204 1.04.106 2.276-.312 3.718-.319 1.064-.794 1.99-1.449 2.784a9.95 9.95 0 0 1-2.252 2.015c-.852.557-1.745 1-2.678 1.351-.934.344-1.843.614-2.719.811-.876.197-1.687.328-2.432.401-.737.066-1.319.107-1.737.107-1.678 0-3.071-.164-4.176-.508-1.114-.368-1.982-.803-2.613-1.335Zm16.56-21.358c-.369.532-.746.99-1.106 1.36-.565.556-.86 1.162-.95 1.752L111.4 20.32a12.04 12.04 0 0 1-2.17-1.319 4.764 4.764 0 0 1-1.22-1.384c-.221-.384-.319-.9-.295-1.58 0-.131.057-.5.459-1.147.45-.72 1.032-1.441 1.744-2.145a18.466 18.466 0 0 1 2.506-2.08 16.145 16.145 0 0 1 2.735-1.54c.811-.352 1.573-.557 2.253-.622.073-.009.155-.009.237-.009.197 0 .401.025.532.115.033.025.156.205.262.622.09.369.189 1.262-.18 3.137a15.756 15.756 0 0 1-.565 2.096c-.254.73-.54 1.425-.86 2.089a15.42 15.42 0 0 1-1.023 1.769Zm13.168 35.06c.844-.107 1.753-.23 2.744-.37.491-1.359.917-2.473 1.277-3.333.353-.86.582-1.31.68-1.343.18-.098.41-.155.696-.163.287-.009.565.016.827.073.271.058.5.14.697.238.196.098.294.205.294.327 0 .058-.123.426-.36 1.098-.238.671-.541 1.564-.917 2.661a258.92 258.92 0 0 0 3.792-.507c1.285-.18 2.546-.352 3.791-.533a70.083 70.083 0 0 1 1.335-3.497c.377-.884.614-1.36.713-1.425.18-.098.401-.155.679-.163.279-.009.549.016.811.073.27.058.5.14.696.238.197.098.295.205.295.327 0 .058-.123.45-.368 1.172-.246.72-.566 1.67-.959 2.858.868-.115 1.679-.23 2.441-.328.761-.098 1.433-.18 2.031-.254.59-.065 1.081-.13 1.482-.18.393-.05.647-.074.77-.074.393-.016.729.041 1.007.197.279.147.369.5.271 1.048-.082.418-.295.77-.639 1.065-.344.295-.745.45-1.204.475-.18 0-.303-.05-.385-.148a.647.647 0 0 1-.147-.352.864.864 0 0 1 .057-.426.83.83 0 0 1 .237-.344c-.024-.04-.196-.057-.516-.04-.327.008-.769.04-1.334.09-.566.049-1.221.114-1.982.204-.762.09-1.589.197-2.498.312a713.736 713.736 0 0 0-1.507 4.618 222.059 222.059 0 0 0-1.597 5.152 152.44 152.44 0 0 0-1.409 5.06c-.425 1.639-.745 3.096-.958 4.366-.213 1.277-.295 2.285-.237 3.038.057.754.319 1.114.77 1.097.417-.016.892-.278 1.425-.786.532-.5 1.081-1.146 1.654-1.94a35.814 35.814 0 0 0 1.736-2.654c.582-.975 1.138-1.941 1.671-2.9.295-.532.548-.998.819-1.49.024-.073.032-.139.057-.213.303-1.007.614-1.916.917-2.727.303-.81.582-1.466.827-1.982.246-.516.418-.786.516-.827.18-.098.402-.155.68-.163.278-.009.549.016.811.073.27.058.499.14.696.238.196.098.295.204.295.327 0 .058-.082.328-.254.803-.172.475-.377 1.073-.623 1.793-.245.721-.515 1.532-.802 2.44a62.238 62.238 0 0 0-.795 2.752 46.848 46.848 0 0 0-.638 2.728c-.172.884-.271 1.67-.279 2.35-.008.68.074 1.22.254 1.63.18.401.492.59.95.548.475-.016.983-.278 1.523-.77.541-.49 1.098-1.121 1.671-1.891s1.138-1.63 1.703-2.58c.566-.95 1.098-1.892 1.614-2.825.516-.934.983-1.827 1.408-2.662.426-.835.795-1.531 1.114-2.088.238-1.22.459-2.244.647-3.047.197-.81.377-1.294.532-1.45.099-.097.295-.212.607-.351a5.43 5.43 0 0 1 .949-.328 2.67 2.67 0 0 1 .828-.09c.229.016.303.131.221.328-.238.646-.459 1.465-.664 2.44-.204.975-.417 2.056-.638 3.243-.213 1.188-.443 2.457-.68 3.816-.238 1.36-.491 2.752-.77 4.177a183.218 183.218 0 0 0 4.856-4.693c1.499-1.506 2.728-2.915 3.669-4.217.082-.115.181-.213.312-.295a.66.66 0 0 1 .36-.115c.106 0 .172.058.205.164.032.107-.009.295-.107.549-.254.59-.696 1.286-1.318 2.072a38.74 38.74 0 0 1-2.22 2.563 79.267 79.267 0 0 1-2.874 2.9 463.369 463.369 0 0 1-3.276 3.12c-.319 1.54-.655 3.07-1.016 4.602a60.867 60.867 0 0 1-1.228 4.398c-.459 1.4-.95 2.71-1.482 3.923-.533 1.212-1.13 2.276-1.794 3.177-.663.91-1.384 1.638-2.178 2.195a5.242 5.242 0 0 1-2.604.942 6.874 6.874 0 0 1-1.712-.099 4.084 4.084 0 0 1-1.646-.68c-.483-.343-.844-.827-1.081-1.449-.238-.622-.238-1.425 0-2.416.196-.827.671-1.76 1.408-2.8.737-1.04 1.647-2.138 2.719-3.317a72.111 72.111 0 0 1 3.628-3.653c1.343-1.261 2.711-2.547 4.12-3.849.294-1.417.573-2.825.843-4.201.262-1.384.508-2.695.729-3.94a81.24 81.24 0 0 1-1.122 2.204c-.418.778-.86 1.547-1.335 2.31a35.61 35.61 0 0 1-1.482 2.202 15.48 15.48 0 0 1-1.589 1.884c-.54.54-1.089.974-1.63 1.302-.54.327-1.072.5-1.58.516-.909.04-1.614-.164-2.121-.606-.5-.442-.852-1.049-1.049-1.818-.196-.77-.27-1.647-.221-2.637.033-.737.172-1.507.295-2.277-.09.156-.172.311-.27.475a53.827 53.827 0 0 1-1.63 2.547 21.253 21.253 0 0 1-1.703 2.203c-.574.639-1.139 1.163-1.687 1.556-.549.393-1.065.581-1.54.565-.671-.017-1.196-.27-1.572-.737-.377-.475-.631-1.122-.77-1.957-.139-.828-.172-1.794-.107-2.9.066-1.105.213-2.3.426-3.587a86.779 86.779 0 0 1-2.121 3.76 44.81 44.81 0 0 1-2.367 3.627c-.802 1.098-1.58 2.007-2.35 2.728-.77.72-1.458 1.072-2.072 1.048-.868-.017-1.49-.443-1.867-1.261-.377-.82-.565-1.892-.582-3.21-.008-.975.099-2.097.246-3.285-.45.786-.909 1.556-1.4 2.31-.606.909-1.212 1.72-1.818 2.432-.615.713-1.229 1.286-1.851 1.728-.623.442-1.229.68-1.818.696-.909.041-1.597-.205-2.072-.729-.475-.524-.786-1.228-.934-2.113-.147-.892-.164-1.908-.041-3.046.115-1.147.311-2.326.573-3.538.271-1.212.59-2.4.967-3.57.377-1.164.737-2.22 1.097-3.154.361-.933.672-1.703.95-2.293.279-.59.459-.909.565-.95.18-.098.402-.155.68-.163.278-.009.549.016.811.073.262.058.499.14.696.238.196.098.295.204.295.327 0 .058-.099.36-.295.901-.197.54-.442 1.245-.737 2.105-.295.86-.614 1.818-.958 2.89a93.165 93.165 0 0 0-.991 3.244c-.32 1.097-.59 2.17-.827 3.21-.238 1.048-.394 1.974-.459 2.785-.074.81-.033 1.457.115 1.94.147.484.45.705.9.664.492-.041 1.032-.352 1.614-.934.581-.581 1.187-1.318 1.818-2.203a36.846 36.846 0 0 0 1.883-2.973 99.384 99.384 0 0 0 1.933-3.562c.197-.942.352-1.859.598-2.834.459-1.81.958-3.595 1.507-5.372a146.24 146.24 0 0 1 1.597-4.89c-.131.017-.262.042-.385.058-.328.05-.663.099-.991.148-.442.065-.893.13-1.335.204-.475.074-.95.148-1.433.213-.41.05-.811.156-1.22.189-.18.016-.369.065-.549.09-.197.024-.393.04-.59.065-.352.041-.679.148-1.04.066-.278-.057-.483-.189-.606-.385a1.552 1.552 0 0 1-.237-.647 2.222 2.222 0 0 1 .033-.737c.049-.254.122-.492.221-.713.139-.319.311-.59.516-.81a2.97 2.97 0 0 1 .622-.533c.205-.13.393-.213.549-.27.155-.05.27-.066.327-.04.336.04.59.138.77.294.18.156.303.336.385.532.074.197.106.401.09.623a5.152 5.152 0 0 1-.09.59c-.057.204-.147.335-.221.507.254-.033.532-.074.77-.106a33.242 33.242 0 0 1 2.145-.32Zm-13.054 11.104a42.876 42.876 0 0 0-1.032 3.816c-.163.754-.245 1.483-.36 2.228a33.97 33.97 0 0 1-.426-1.548 37.949 37.949 0 0 1-.622-3.112c-.115-.761-.197-1.4-.238-1.924.95-.852 1.99-1.794 3.104-2.817.385-.353.786-.73 1.179-1.098-.147.36-.303.745-.466 1.18a63.578 63.578 0 0 0-1.139 3.275Zm9.819-6.625 1.622-.246c-.082.27-.172.549-.262.827a105.86 105.86 0 0 0-1.548 5.512c-.221.876-.36 1.711-.54 2.571 0 0 0 .009-.009.009-.54 1.031-1.113 2.08-1.719 3.144-.197.336-.385.672-.582.991.123-.475.254-.95.393-1.433.303-1.065.631-2.113.967-3.161.335-1.048.655-1.99.941-2.834.295-.843.533-1.531.729-2.063.32-.868.459-1.278.459-1.81a2.82 2.82 0 0 0-.451-1.507Zm2.793-15.912c.246.032.459.155.639.385.18.229.287.507.327.827.041.327-.057.63-.294.9a149.568 149.568 0 0 1-4.93 5.504 187.02 187.02 0 0 1-4.988 5.11 173.458 173.458 0 0 1-4.725 4.488 296 296 0 0 1-4.07 3.669c.016 0 .032.008.032.033a29.807 29.807 0 0 0 .336 3.39c.148.975.369 2.089.663 3.333a31.66 31.66 0 0 0 1.212 3.907 29.91 29.91 0 0 0 1.941 4.103 20.932 20.932 0 0 0 2.826 3.865c.098.123.098.246 0 .369-.098.13-.254.237-.475.335-.213.099-.459.18-.737.254-.279.066-.533.09-.77.074-.868-.057-1.63-.483-2.293-1.261-.663-.778-1.237-1.761-1.728-2.948a26.57 26.57 0 0 1-1.261-3.882c-.344-1.4-.631-2.76-.844-4.087a68.448 68.448 0 0 1-.491-3.587c-.107-1.065-.18-1.843-.221-2.342l-1.302 1.097a56.456 56.456 0 0 1-1.958 4.046 55.543 55.543 0 0 1-2.072 3.579 27.759 27.759 0 0 1-2.047 2.883c-.672.827-1.294 1.474-1.867 1.924-.213.18-.402.197-.565.057-.156-.139-.27-.352-.336-.638-.074-.287-.082-.606-.05-.967.042-.352.156-.68.361-.974 2.072-2.981 3.759-5.774 5.061-8.378 1.302-2.605 2.293-4.996 2.973-7.166.68-2.17 1.106-4.111 1.269-5.823.172-1.703.164-3.161-.016-4.349-.18-1.195-.475-2.112-.893-2.751-.417-.639-.868-.983-1.359-1.024a3.107 3.107 0 0 0-1.818.385 6.046 6.046 0 0 0-1.523 1.228 9.79 9.79 0 0 0-1.213 1.655c-.36.606-.663 1.17-.917 1.72-.254.54-.467 1.007-.622 1.392-.156.385-.27.606-.328.663-.155.197-.352.27-.581.205-.23-.058-.328-.254-.311-.59 0-.098.082-.368.237-.802.156-.434.385-.95.68-1.54.295-.59.655-1.22 1.081-1.884.426-.663.917-1.269 1.482-1.818a8.185 8.185 0 0 1 1.884-1.376 4.698 4.698 0 0 1 2.252-.548c1.146 0 2.072.237 2.784.712.713.475 1.245 1.13 1.614 1.966.36.843.573 1.826.622 2.964.049 1.139-.033 2.367-.237 3.702a34.285 34.285 0 0 1-.934 4.193 53.824 53.824 0 0 1-1.45 4.382 125.549 125.549 0 0 0 3.35-3.006 165.442 165.442 0 0 0 3.743-3.587 285.669 285.669 0 0 0 3.808-3.816 126.806 126.806 0 0 0 3.521-3.743 106.108 106.108 0 0 0 2.899-3.358c.852-1.04 1.499-1.916 1.958-2.653.196-.287.417-.426.671-.401Zm71.65-18.255c-.254.59-.696 1.286-1.318 2.072a38.74 38.74 0 0 1-2.22 2.563 78.47 78.47 0 0 1-2.874 2.9 461.13 461.13 0 0 1-3.276 3.12 177.13 177.13 0 0 1-1.015 4.602 60.833 60.833 0 0 1-1.229 4.398c-.458 1.4-.95 2.71-1.482 3.923-.532 1.212-1.13 2.276-1.794 3.177-.663.91-1.384 1.638-2.178 2.195a5.239 5.239 0 0 1-2.604.942 6.87 6.87 0 0 1-1.712-.098 4.083 4.083 0 0 1-1.646-.68c-.483-.344-.844-.827-1.081-1.45-.238-.622-.238-1.425 0-2.416.197-.827.672-1.76 1.409-2.8.737-1.04 1.646-2.138 2.718-3.317a72.532 72.532 0 0 1 3.628-3.653c1.344-1.26 2.711-2.547 4.12-3.849.295-1.416.573-2.825.843-4.201.262-1.384.508-2.694.729-3.94a81.093 81.093 0 0 1-1.122 2.204c-.417.778-.86 1.548-1.335 2.31a35.613 35.613 0 0 1-1.482 2.202 15.48 15.48 0 0 1-1.589 1.884c-.54.54-1.089.974-1.629 1.302-.541.328-1.073.5-1.581.516-.909.04-1.613-.164-2.121-.606-.5-.442-.852-1.048-1.048-1.818-.197-.77-.271-1.646-.222-2.637.033-.754.172-1.54.303-2.326-.106.18-.18.336-.294.524a41.879 41.879 0 0 1-2.203 3.35c-.762 1.023-1.515 1.875-2.269 2.547-.753.671-1.449.999-2.105.974-.868-.024-1.506-.417-1.908-1.187-.401-.77-.63-1.786-.679-3.039-.05-1.253.049-2.686.278-4.291a65.701 65.701 0 0 1-1.351 2.154 47.855 47.855 0 0 1-1.884 2.637 23.212 23.212 0 0 1-1.965 2.268c-.664.664-1.327 1.196-1.982 1.597-.664.402-1.286.598-1.884.582-1.023-.017-1.867-.279-2.514-.786a4.555 4.555 0 0 1-1.45-1.966c-.319-.81-.475-1.728-.475-2.752 0-.622.066-1.253.156-1.891-.074.106-.131.213-.205.319a52.353 52.353 0 0 1-1.875 2.637 23.081 23.081 0 0 1-1.966 2.269c-.663.663-1.326 1.195-1.981 1.596-.664.402-1.286.598-1.884.582-1.024-.016-1.867-.278-2.514-.786a4.548 4.548 0 0 1-1.45-1.966c-.319-.81-.475-1.728-.475-2.751 0-1.024.131-2.08.385-3.153.058-.238.139-.475.213-.713-.254.156-.467.352-.745.483-.647.32-1.36.483-2.129.508h-.172a40.788 40.788 0 0 1-1.024 2.457 18.12 18.12 0 0 1-1.261 2.342 9.328 9.328 0 0 1-1.433 1.777c-.5.475-1.016.73-1.524.77-.77.057-1.4-.082-1.891-.418a4.013 4.013 0 0 1-1.204-1.285 6.035 6.035 0 0 1-.664-1.728c-.139-.63-.237-1.22-.278-1.777a10.9 10.9 0 0 1-.057-1.393c.008-.376.016-.573.016-.59-.025.058-.123.296-.295.697-.18.401-.401.892-.68 1.466a36.14 36.14 0 0 1-.958 1.834 16.731 16.731 0 0 1-1.155 1.794c-.401.54-.819.999-1.244 1.36-.426.368-.836.54-1.229.515-.589-.016-1.056-.254-1.392-.712-.336-.459-.573-1.057-.712-1.81-.14-.754-.197-1.605-.181-2.564.017-.958.099-1.94.238-2.964.139-1.016.319-2.015.549-3.006.229-.983.458-1.892.696-2.71a17.71 17.71 0 0 1 .712-2.056c.238-.549.442-.91.623-1.065.139-.114.335-.163.606-.13.262.032.524.09.786.188.254.098.475.212.655.344.172.13.254.22.237.278-.278.59-.556 1.368-.843 2.342a41.587 41.587 0 0 0-.786 3.112 50.85 50.85 0 0 0-.606 3.333 30.965 30.965 0 0 0-.328 3.039c-.049.909-.033 1.646.041 2.22.082.572.246.859.508.859.196 0 .467-.262.802-.786.336-.524.713-1.229 1.139-2.113.426-.885.884-1.916 1.376-3.08.491-1.162.99-2.383 1.482-3.652.491-1.27.983-2.555 1.466-3.833a246.7 246.7 0 0 0 1.343-3.644c.082-.197.254-.303.532-.311.279-.008.565.033.86.123a2.4 2.4 0 0 1 .754.368c.204.156.278.328.221.508a69.261 69.261 0 0 0-.95 2.973 49.855 49.855 0 0 0-1.54 7.067c-.156 1.163-.213 2.203-.18 3.112.041.91.196 1.638.475 2.195.278.557.729.82 1.359.803.254 0 .533-.197.827-.59.295-.393.598-.909.901-1.54.303-.63.615-1.343.918-2.129.303-.794.597-1.58.876-2.367a4.445 4.445 0 0 1-1.04-.753 4.453 4.453 0 0 1-.86-1.188 5.656 5.656 0 0 1-.516-1.63c-.107-.622-.107-1.326.016-2.112.017-.156.082-.434.18-.827.099-.393.23-.836.385-1.335.156-.492.352-1.007.59-1.54a9.903 9.903 0 0 1 .803-1.466 4.92 4.92 0 0 1 1.007-1.122c.377-.303.778-.467 1.212-.491.352-.016.704.123 1.04.426.336.303.581.827.737 1.572.156.737.18 1.72.057 2.948-.114 1.22-.458 2.736-1.007 4.53-.057.18-.147.466-.27.875-.115.402-.279.877-.475 1.41h.18c.475-.017.95-.173 1.433-.46a6.895 6.895 0 0 0 1.36-1.064c.147-.148.27-.32.409-.475.049-.107.082-.221.139-.328a13.656 13.656 0 0 1 1.761-2.8 9.465 9.465 0 0 1 2.277-2.032 5.423 5.423 0 0 1 2.678-.843c.655-.017 1.179.057 1.589.221.401.172.72.393.949.663.23.279.377.598.459.967.082.368.115.712.115 1.048 0 .336-.033.647-.09.95-.058.295-.115.516-.148.655-.417 1.22-.999 2.179-1.744 2.858-.754.68-1.532 1.188-2.35 1.524-.819.335-1.606.54-2.351.606-.753.065-1.335.106-1.744.106a14.81 14.81 0 0 0-.107 2.293c.033.72.148 1.351.344 1.892.197.54.475.966.827 1.27.353.302.803.441 1.335.4.549-.04 1.163-.343 1.835-.9.671-.565 1.359-1.27 2.072-2.13a37.479 37.479 0 0 0 2.113-2.817 71.919 71.919 0 0 0 1.94-2.964c.05-.082.082-.148.132-.23.106-.254.196-.5.311-.753a13.649 13.649 0 0 1 1.76-2.8 9.48 9.48 0 0 1 2.277-2.032 5.425 5.425 0 0 1 2.678-.844c.655-.016 1.179.058 1.589.222.401.172.721.393.95.663.229.278.377.598.459.966.081.369.114.713.114 1.049 0 .335-.033.647-.09.95-.057.294-.115.516-.147.655-.418 1.22-.999 2.178-1.745 2.858-.753.68-1.531 1.187-2.35 1.523-.819.336-1.605.54-2.35.606-.746.066-1.335.107-1.745.107-.098.81-.131 1.572-.106 2.293.032.72.147 1.351.344 1.892.196.54.475.966.827 1.269.352.303.802.442 1.335.401.548-.04 1.163-.344 1.834-.9.672-.566 1.36-1.27 2.072-2.13a36.964 36.964 0 0 0 2.113-2.817 90.73 90.73 0 0 0 1.941-2.965c.311-.5.54-.909.802-1.36.132-.663.222-1.301.377-1.981.393-1.704.836-3.39 1.319-5.061.483-1.67.958-3.194 1.433-4.578-.827.18-1.63.352-2.4.532-.769.18-1.457.344-2.072.492-.614.147-1.122.27-1.523.352-.401.09-.639.147-.696.163-.319.041-.573.033-.77-.016a1.515 1.515 0 0 1-.475-.205.619.619 0 0 1-.237-.327 1.11 1.11 0 0 1-.058-.336c0-.254.082-.508.238-.753a.875.875 0 0 1 .647-.426c.254-.041.418-.025.491.057.074.082.115.14.131.18.058.279.082.426.058.442-.017.017-.009.033.032.033.811-.18 1.548-.336 2.212-.475.663-.139 1.416-.303 2.268-.491.852-.188 1.728-.369 2.637-.549a61.83 61.83 0 0 1 1.114-2.948c.303-.737.508-1.13.606-1.171.18-.098.409-.156.696-.164.287-.008.565.016.827.074.27.057.5.139.696.237.197.098.295.205.295.328 0 .04-.09.32-.27.843-.18.524-.401 1.229-.68 2.113 1.188-.237 2.244-.434 3.169-.59.926-.155 1.54-.245 1.835-.27.418-.016.753.041 1.024.197.27.147.36.5.278 1.048-.082.418-.295.77-.639 1.065a1.792 1.792 0 0 1-1.204.442.475.475 0 0 1-.368-.147.68.68 0 0 1-.164-.344.827.827 0 0 1 .041-.418.637.637 0 0 1 .254-.344c-.025-.057-.156-.082-.418-.057-.254.016-.589.057-1.007.122-.418.058-.901.148-1.45.254l-1.777.344c-.319.95-.647 2.007-1.007 3.17-.36 1.163-.721 2.367-1.097 3.611a222.436 222.436 0 0 0-1.098 3.776c-.352 1.269-.671 2.506-.95 3.685a70.223 70.223 0 0 0-.696 3.317 23.34 23.34 0 0 0-.352 2.678c-.049.761-.008 1.35.115 1.777.131.426.368.63.728.606.418-.017.885-.279 1.409-.786a14.529 14.529 0 0 0 1.646-1.941 36.998 36.998 0 0 0 1.744-2.645c.59-.975 1.155-1.941 1.687-2.9.304-.54.557-1.015.828-1.515.016-.057.032-.122.049-.188.303-1.007.614-1.916.917-2.727.303-.81.581-1.466.827-1.982s.418-.786.516-.827c.18-.098.401-.156.68-.164.278-.008.549.016.811.074.27.057.499.139.696.237.196.098.295.205.295.328 0 .057-.082.327-.254.802-.172.475-.377 1.073-.623 1.794-.245.72-.516 1.531-.802 2.44-.287.91-.549 1.827-.795 2.752a47.699 47.699 0 0 0-.639 2.727c-.171.885-.27 1.67-.278 2.35-.008.68.074 1.22.254 1.63.18.402.491.59.95.549.475-.016.983-.278 1.523-.77.541-.491 1.098-1.122 1.671-1.892.573-.77 1.138-1.63 1.703-2.58.565-.95 1.098-1.891 1.614-2.825.516-.933.982-1.826 1.408-2.661.426-.836.795-1.532 1.114-2.089.237-1.22.459-2.244.647-3.054.196-.811.377-1.294.532-1.45.099-.098.295-.213.606-.352.303-.14.623-.246.95-.328.328-.081.606-.106.827-.09.23.025.303.131.222.328-.238.647-.459 1.466-.664 2.44-.205.975-.417 2.056-.639 3.244-.213 1.187-.442 2.456-.679 3.816-.238 1.36-.492 2.752-.77 4.176a183.215 183.215 0 0 0 4.856-4.692c1.499-1.507 2.727-2.916 3.669-4.218.082-.114.18-.213.311-.295a.663.663 0 0 1 .361-.114c.114 0 .172.057.204.164.041.057.009.245-.09.5Zm-34.551-5.053.851-.188c.402-.09.909-.205 1.499-.352-.024.073-.041.147-.065.213-.156.548-.287 1.113-.434 1.67-.475-.557-1.098-1.007-1.851-1.343Z" fill="#fff"/><path d="M180.487 44.02c-.917.983-1.67 1.867-2.268 2.678-.59.811-.958 1.49-1.098 2.048-.278 1.187-.131 2.055.443 2.62.573.557 1.392.827 2.456.778.787-.016 1.524-.442 2.203-1.27.68-.826 1.311-1.916 1.892-3.275.582-1.351 1.122-2.907 1.63-4.66.508-1.76.975-3.57 1.409-5.446a306.251 306.251 0 0 0-3.587 3.407 107.533 107.533 0 0 0-3.08 3.12ZM128.893 73.396c-.229 1.31-.319 2.359-.27 3.137.049.778.303 1.163.753 1.138.377-.025.811-.27 1.303-.737.491-.475 1.015-1.09 1.572-1.85a46.548 46.548 0 0 0 1.736-2.58 61.53 61.53 0 0 0 1.745-2.933c.565-.999 1.097-1.965 1.596-2.899.508-.933.95-1.769 1.344-2.506.45-1.973.982-3.955 1.597-5.937a173.518 173.518 0 0 1 1.777-5.462c-1.245.155-2.506.327-3.776.515-1.269.189-2.53.37-3.775.55-.475 1.383-.991 2.94-1.54 4.66a366.239 366.239 0 0 0-1.629 5.24 135.213 135.213 0 0 0-1.45 5.168 63.322 63.322 0 0 0-.983 4.496Zm3.563-3.825c.426-1.646.901-3.333 1.425-5.06a499.387 499.387 0 0 1 1.613-5.2 293.66 293.66 0 0 1 1.007-3.08l1.704-.246c-.156.483-.303.967-.459 1.466a83.519 83.519 0 0 0-1.564 5.774l-1.179 2.186c-.5.918-1.016 1.876-1.573 2.858-.36.647-.737 1.286-1.122 1.909.041-.197.09-.402.148-.606ZM149.916 83.314c-.917.982-1.671 1.867-2.269 2.678-.589.81-.958 1.49-1.097 2.047-.279 1.188-.131 2.056.442 2.62.573.558 1.392.828 2.457.779.786-.017 1.523-.442 2.203-1.27.68-.827 1.31-1.916 1.892-3.276.581-1.35 1.122-2.907 1.629-4.66.508-1.752.975-3.57 1.409-5.445a314.371 314.371 0 0 0-3.587 3.406 107.3 107.3 0 0 0-3.079 3.12ZM76.996 36.888c3.104-3.186 4.578-7.69 4.382-13.39.196-4.439-1.63-5.725-4.71-6.028-.434-3.652-2.129-6.297-5.06-7.878a10.653 10.653 0 0 0-1.99-.819c-.197-2.088-.558-3.611-1.09-4.652-.876-1.711-2.146-2.219-3.046-2.35a3.677 3.677 0 0 0-.525-.033c-1.007 0-2.006.41-2.964 1.204-.885.737-1.843 1.95-2.916 3.677C58.045 4.711 56.58 3 54.467 3c-.41 0-.82.066-1.237.197-2.71.852-5.02 4.971-7.96 14.176a45.252 45.252 0 0 0-3.153 4.734 42.2 42.2 0 0 0-.737 1.335 35.417 35.417 0 0 0-6.02-.516c-3.758 0-7.46.597-11.014 1.768a35.366 35.366 0 0 0-15.88 10.729c-.72.86-1.425 1.769-2.08 2.719C1.923 44.586-.33 52.284.039 59.81c.401 8.074 3.865 15.273 9.77 20.268.696.59 1.442 1.163 2.22 1.696 2.505 1.736 5.347 3.21 8.443 4.381 5.569 2.113 11.916 3.227 18.369 3.227a54.19 54.19 0 0 0 9.91-.901c10.056-1.867 18.008-6.396 22.398-12.743a21.453 21.453 0 0 0 2.432-4.61c1.777-4.685 1.95-8.878.491-12.121a9.907 9.907 0 0 0-3.939-4.455c-1.531-.926-3.35-1.466-5.25-1.565-.032 0-.073 0-.106-.008 1.671-2.481 3.006-5.904 3.374-11.473 3.71-.844 6.675-2.392 8.845-4.62ZM61.714 54.675c.877-.229 1.786-.376 2.703-.376.14 0 .278 0 .418.008 1.613.082 3.226.524 4.627 1.376a8.451 8.451 0 0 1 3.407 3.865c1.179 2.645 1.302 6.314-.525 11.113a19.845 19.845 0 0 1-2.284 4.325c-4.415 6.38-12.465 10.507-21.555 12.194a53.107 53.107 0 0 1-9.672.876c-6.134 0-12.334-1.032-17.894-3.137-2.924-1.113-5.684-2.522-8.165-4.234a27.25 27.25 0 0 1-2.121-1.621C4.65 73.986 1.7 67.009 1.349 59.744c-.352-7.198 1.843-14.675 6.11-20.85a33.975 33.975 0 0 1 17.288-12.948 33.818 33.818 0 0 1 10.597-1.703c2.244 0 4.504.221 6.748.672.369-.73.745-1.45 1.155-2.154a44.15 44.15 0 0 1 3.202-4.775c2.71-8.533 4.955-12.84 7.166-13.537a2.77 2.77 0 0 1 .835-.131c1.72 0 3.145 1.802 4.464 5.184 1.498-2.735 2.809-4.627 3.914-5.553.713-.597 1.417-.892 2.113-.892.115 0 .221.008.336.024.868.123 1.556.672 2.055 1.638.533 1.032.869 2.752 1.024 5.078.967.22 1.835.54 2.604.95 2.81 1.515 4.3 4.168 4.464 7.96l.327.008c3.055.14 4.455.811 4.283 4.807.189 5.34-1.146 9.484-4.004 12.416-2.187 2.244-5.242 3.726-9.14 4.463-.32 7.837-2.432 11.383-5.176 14.274Z" fill="#fff"/><path d="M77.291 23.473c.074-1.646-.459-1.925-1.638-1.982-.426-.016-.86-.024-1.327-.033h-.27a1.38 1.38 0 0 1-1.367-1.392v-.04c.13-3.408-.877-5.684-3.014-6.84-1.27-.687-2.957-1.031-5.045-1.031-1.343 0-2.866.14-4.545.426-.033.016-.057.033-.09.049.114.377.229.729.344 1.13a1.38 1.38 0 0 1-1.335 1.753 1.39 1.39 0 0 1-1.335-1.008 127.13 127.13 0 0 0-.778-2.628c-.008-.025-.025-.05-.033-.074v-.033c-.958-3.055-1.703-4.7-2.293-4.7a.41.41 0 0 0-.098.016c-1.278.401-2.981 4.2-5.422 11.94-.049.164-.123.32-.237.459a41.51 41.51 0 0 0-5.626 9.696c-.221.532-.738.86-1.278.86-.172 0-.352-.033-.524-.107a1.384 1.384 0 0 1-.754-1.801c.09-.213.197-.418.287-.63a31.431 31.431 0 0 0-5.52-.492 31 31 0 0 0-9.762 1.572 31.202 31.202 0 0 0-14.037 9.484 31.683 31.683 0 0 0-1.842 2.4C5.82 46.141 3.806 53.012 4.126 59.612c.32 6.527 2.956 12.792 8.328 17.338.606.516 1.237.999 1.9 1.457 2.294 1.58 4.84 2.891 7.568 3.923 5.249 1.99 11.113 2.965 16.91 2.965 3.113 0 6.209-.279 9.173-.836 8.41-1.564 15.806-5.298 19.778-11.047a17.299 17.299 0 0 0 1.965-3.735c1.532-4.029 1.49-6.985.59-9.008a5.755 5.755 0 0 0-2.318-2.613c-.999-.606-2.162-.925-3.325-.982-.13-.009-.262-.009-.4-.009-1.835 0-3.604.631-4.71 1.794-.065.066-.139.098-.213.147-.139 2.302-1.13 4.849-2.678 7.166-1.687 2.53-4.004 4.832-6.437 6.232-3.022 1.745-6.83 2.58-11.187 2.58-1.179 0-2.4-.057-3.652-.18-5.905-.573-12.628-2.465-19.647-5.544a1.378 1.378 0 0 1-.712-1.818 1.379 1.379 0 0 1 1.818-.713c4.774 2.097 9.377 3.587 13.644 4.488 3.054-6.077 4.094-11.154 3.611-15.077-.327-2.629-1.335-4.717-2.842-6.224-1.515-1.507-3.554-2.457-5.945-2.793-.655-.09-1.343-.139-2.048-.139-3.194 0-6.838.958-10.63 2.956a1.397 1.397 0 0 1-1.875-.581 1.38 1.38 0 0 1 .581-1.867c4.202-2.22 8.296-3.276 11.933-3.276.835 0 1.637.057 2.415.164 2.99.417 5.57 1.63 7.518 3.57 1.95 1.941 3.244 4.578 3.645 7.846.524 4.25-.492 9.623-3.53 15.904.778.115 1.572.27 2.326.344 1.155.115 2.269.156 3.35.156h.172c-.107-1.245-.222-2.49-.27-3.751a77.152 77.152 0 0 1-.025-5.151 1.372 1.372 0 0 1 1.376-1.343h.04a1.38 1.38 0 0 1 1.343 1.416 71.902 71.902 0 0 0 .033 4.971c.05 1.22.156 2.45.262 3.67 2.646-.28 5.004-.91 6.92-2.015.172-.099.336-.238.508-.344.492-2.817 1.22-6.617 2.26-10.368 1.139-4.128 2.646-8.124 4.595-10.516.27-.335.671-.507 1.073-.507a1.379 1.379 0 0 1 1.065 2.252c-1.245 1.531-2.318 3.955-3.22 6.674.173-.172.32-.327.509-.516 4.029-4.07 7.886-5.97 8.435-15.887-.311.032-.614.065-.934.09h-.09a1.38 1.38 0 0 1-.082-2.76c5.02-.32 8.698-1.687 11.048-4.095 2.318-2.383 3.39-5.864 3.227-10.45l.016-.098Z" fill="#fff"/><path d="M53.46 63.503a110.748 110.748 0 0 0-.688 3.227 18.126 18.126 0 0 0 1.63-2.089c1.072-1.605 1.825-3.3 2.12-4.864a28.636 28.636 0 0 0-2.948 3.538c-.033.049-.074.123-.115.188ZM65.588 9.429c-.131-1.647-.368-2.81-.696-3.448 0 0-.016-.017-.05-.017-.04 0-.106.025-.212.115-.688.581-1.548 1.753-2.547 3.456a26.971 26.971 0 0 1 3.505-.106Z" fill="#fff"/></svg>